<?xml version="1.0" encoding="UTF-8"?>
<!DOCTYPE svg PUBLIC "-//W3C//DTD SVG 1.1//EN" "http://www.w3.org/Graphics/SVG/1.1/DTD/svg11.dtd">
<svg xmlns="http://www.w3.org/2000/svg" version="1.1" width="612px" height="408px" style="shape-rendering:geometricPrecision; text-rendering:geometricPrecision; image-rendering:optimizeQuality; fill-rule:evenodd; clip-rule:evenodd" xmlns:xlink="http://www.w3.org/1999/xlink">
<g><path style="opacity:1" fill="#dde5fd" d="M 561.5,174.5 C 561.958,165.842 562.291,157.176 562.5,148.5C 562.624,142.395 562.124,136.395 561,130.5C 559.951,129.483 558.784,129.316 557.5,130C 552.667,133.5 547.833,137 543,140.5C 542.601,140.272 542.435,139.938 542.5,139.5C 542.703,137.61 542.037,136.11 540.5,135C 527.5,134.333 514.5,134.333 501.5,135C 498.86,137.621 498.86,140.121 501.5,142.5C 513.326,143.331 525.326,143.831 537.5,144C 536.211,145.802 534.544,146.969 532.5,147.5C 521.828,147.333 511.161,147.5 500.5,148C 499.944,148.383 499.611,148.883 499.5,149.5C 498.67,158.324 498.17,167.324 498,176.5C 491.663,182.004 485.496,187.671 479.5,193.5C 479.5,191.833 479.5,190.167 479.5,188.5C 479.5,185.5 479.5,182.5 479.5,179.5C 482.602,179.846 485.435,179.179 488,177.5C 488.667,167.833 488.667,158.167 488,148.5C 483.599,147.533 479.099,147.2 474.5,147.5C 473.566,146.432 473.232,145.099 473.5,143.5C 477.982,142.674 482.649,142.174 487.5,142C 488.982,139.408 488.648,137.075 486.5,135C 481.511,134.501 476.511,134.334 471.5,134.5C 470.137,130.518 468.803,130.518 467.5,134.5C 460.825,134.334 454.158,134.5 447.5,135C 445.327,136.865 444.993,139.031 446.5,141.5C 452.798,142.496 459.132,142.83 465.5,142.5C 465.204,144.403 464.537,146.07 463.5,147.5C 457.575,147.192 451.741,147.525 446,148.5C 445.333,158.167 445.333,167.833 446,177.5C 447.699,178.406 449.533,178.739 451.5,178.5C 448.164,185.179 444.331,191.512 440,197.5C 436.94,196.398 436.107,197.398 437.5,200.5C 436.07,200.306 434.57,200.306 433,200.5C 432.689,201.742 433.189,202.742 434.5,203.5C 430.808,209.564 427.141,215.564 423.5,221.5C 423.5,219.167 423.5,216.833 423.5,214.5C 423.806,211.615 423.473,208.948 422.5,206.5C 422.5,204.167 422.5,201.833 422.5,199.5C 421.835,192.52 421.502,185.52 421.5,178.5C 425.767,178.797 429.934,178.464 434,177.5C 434.667,167.833 434.667,158.167 434,148.5C 429.263,147.531 424.43,147.197 419.5,147.5C 419.5,145.833 419.5,144.167 419.5,142.5C 424.179,142.666 428.845,142.499 433.5,142C 434.982,139.408 434.648,137.075 432.5,135C 428.179,134.501 423.846,134.334 419.5,134.5C 419.335,131.15 419.502,127.817 420,124.5C 431.76,119.317 436.426,110.317 434,97.5C 426.618,82.706 415.452,78.8727 400.5,86C 397.577,88.4162 395.243,91.2496 393.5,94.5C 387.167,94.5 380.833,94.5 374.5,94.5C 373.317,93.4955 371.984,92.6622 370.5,92C 364.509,91.5005 358.509,91.3338 352.5,91.5C 353.155,87.6453 351.821,84.8119 348.5,83C 341.476,82.8311 334.476,82.3311 327.5,81.5C 333.704,65.3459 328.037,57.3459 310.5,57.5C 312.969,56.6829 315.635,56.1829 318.5,56C 332.445,43.7418 347.778,33.4085 364.5,25C 382.743,17.6438 400.077,19.3104 416.5,30C 424.47,36.9687 432.136,44.302 439.5,52C 448.23,56.9109 457.564,60.2442 467.5,62C 488.167,64 508.833,66 529.5,68C 545.227,69.1125 558.06,75.6125 568,87.5C 571.398,94.4252 573.231,101.758 573.5,109.5C 572.606,131.876 568.606,153.543 561.5,174.5 Z"/></g>
<g><path style="opacity:0.999" fill="#e5ecfd" d="M 282.5,80.5 C 281.828,81.2674 280.995,81.9341 280,82.5C 279.502,85.4816 279.335,88.4816 279.5,91.5C 272.159,91.3337 264.826,91.5003 257.5,92C 254.611,93.6267 251.444,94.46 248,94.5C 241.128,94.1632 234.295,93.4965 227.5,92.5C 225.577,93.0924 223.911,94.0924 222.5,95.5C 215.068,97.9312 210.402,102.931 208.5,110.5C 207.503,127.659 207.17,144.992 207.5,162.5C 195.467,147.419 183.634,134.086 172,122.5C 158.032,109.526 143.198,97.6928 127.5,87C 126.5,86.3333 125.5,86.3333 124.5,87C 123.736,89.0693 123.236,91.236 123,93.5C 122.96,116.031 122.793,138.531 122.5,161C 126.53,182.058 130.197,203.225 133.5,224.5C 131.833,224.5 130.167,224.5 128.5,224.5C 128.5,229.833 128.5,235.167 128.5,240.5C 127.42,242.996 126.086,245.33 124.5,247.5C 123.971,235.426 123.638,223.093 123.5,210.5C 120.212,210.927 117.212,210.26 114.5,208.5C 114.08,210.326 114.08,212.326 114.5,214.5C 114.5,239.167 114.5,263.833 114.5,288.5C 113.194,286.527 111.527,284.861 109.5,283.5C 109.5,278.167 109.5,272.833 109.5,267.5C 107.5,267.5 105.5,267.5 103.5,267.5C 97.0586,236.508 94.5586,205.175 96,173.5C 108.175,156.793 114.175,138.126 114,117.5C 109.519,114.58 105.519,115.247 102,119.5C 92.8212,133.887 88.4879,149.554 89,166.5C 89.7246,168.949 90.7246,171.283 92,173.5C 92.4997,181.827 92.6664,190.16 92.5,198.5C 90.5853,198.216 88.9187,198.549 87.5,199.5C 87.5,212.833 87.5,226.167 87.5,239.5C 79.4851,216.617 74.6517,192.95 73,168.5C 72.5853,143.132 73.4186,117.799 75.5,92.5C 75.4477,87.4517 75.1144,82.4517 74.5,77.5C 86.9098,62.6326 102.91,55.2993 122.5,55.5C 137.766,55.816 152.433,58.9827 166.5,65C 178.779,70.4728 190.779,76.4728 202.5,83C 216.748,90.0538 231.748,92.3872 247.5,90C 259.486,87.9205 271.153,84.7539 282.5,80.5 Z"/></g>
<g><path style="opacity:1" fill="#c1d2fb" d="M 74.5,77.5 C 75.1144,82.4517 75.4477,87.4517 75.5,92.5C 73.4186,117.799 72.5853,143.132 73,168.5C 74.6517,192.95 79.4851,216.617 87.5,239.5C 87.5,241.833 87.5,244.167 87.5,246.5C 80.1398,227.357 74.8065,207.691 71.5,187.5C 69.0782,172.615 67.5782,157.615 67,142.5C 66.2252,138.399 63.7252,136.566 59.5,137C 55.9131,133.995 53.7464,130.162 53,125.5C 50.8355,109.448 51.1688,93.4482 54,77.5C 55.2742,73.0099 56.9409,68.6766 59,64.5C 64.7571,59.7341 69.0904,60.7341 72,67.5C 73.3524,70.7201 74.1857,74.0534 74.5,77.5 Z"/></g>
<g><path style="opacity:1" fill="#160b74" d="M 310.5,57.5 C 328.037,57.3459 333.704,65.3459 327.5,81.5C 334.476,82.3311 341.476,82.8311 348.5,83C 351.821,84.8119 353.155,87.6453 352.5,91.5C 329.5,91.5 306.5,91.5 283.5,91.5C 283.244,89.2075 283.577,87.0408 284.5,85C 288.871,84.8275 293.204,84.3275 297.5,83.5C 292.749,82.1194 288.083,82.2861 283.5,84C 281.887,86.2276 281.22,88.7276 281.5,91.5C 280.833,91.5 280.167,91.5 279.5,91.5C 279.335,88.4816 279.502,85.4816 280,82.5C 280.995,81.9341 281.828,81.2674 282.5,80.5C 290.175,80.6802 297.842,81.0135 305.5,81.5C 304.81,75.1903 304.476,68.857 304.5,62.5C 305.288,59.3791 307.288,57.7124 310.5,57.5 Z"/></g>
<g><path style="opacity:1" fill="#d2d8f4" d="M 313.5,65.5 C 318.835,65.005 321.335,67.3384 321,72.5C 317.905,76.327 314.905,76.327 312,72.5C 311.167,69.829 311.667,67.4957 313.5,65.5 Z"/></g>
<g><path style="opacity:1" fill="#a6a9d7" d="M 311.5,59.5 C 313.857,59.3367 316.19,59.5034 318.5,60C 311.101,59.7362 307.268,63.2362 307,70.5C 305.393,65.4383 306.893,61.7716 311.5,59.5 Z"/></g>
<g><path style="opacity:0.962" fill="#dbe1f7" d="M 304.5,62.5 C 304.476,68.857 304.81,75.1903 305.5,81.5C 297.842,81.0135 290.175,80.6802 282.5,80.5C 288.387,75.8034 294.72,71.6367 301.5,68C 302.869,66.2811 303.869,64.4478 304.5,62.5 Z"/></g>
<g><path style="opacity:1" fill="#8382c2" d="M 283.5,91.5 C 282.833,91.5 282.167,91.5 281.5,91.5C 281.22,88.7276 281.887,86.2276 283.5,84C 288.083,82.2861 292.749,82.1194 297.5,83.5C 293.204,84.3275 288.871,84.8275 284.5,85C 283.577,87.0408 283.244,89.2075 283.5,91.5 Z"/></g>
<g><path style="opacity:1" fill="#93b1f6" d="M 419.5,134.5 C 418.514,130.03 418.181,125.363 418.5,120.5C 424.384,119.119 428.217,115.453 430,109.5C 430.667,106.167 430.667,102.833 430,99.5C 428.989,98.6634 427.822,98.33 426.5,98.5C 428.427,106.96 425.76,113.293 418.5,117.5C 419.22,105.907 414.22,98.2403 403.5,94.5C 406.23,91.8088 409.564,90.4755 413.5,90.5C 413.5,89.5 413.5,88.5 413.5,87.5C 407.426,87.2035 402.759,89.5368 399.5,94.5C 397.5,94.5 395.5,94.5 393.5,94.5C 395.243,91.2496 397.577,88.4162 400.5,86C 415.452,78.8727 426.618,82.706 434,97.5C 436.426,110.317 431.76,119.317 420,124.5C 419.502,127.817 419.335,131.15 419.5,134.5 Z"/></g>
<g><path style="opacity:1" fill="#94b2f8" d="M 460.5,82.5 C 473.503,80.5832 482.67,85.5832 488,97.5C 489.646,116.853 480.813,126.02 461.5,125C 448.698,120.236 443.531,111.069 446,97.5C 449.021,90.6468 453.855,85.6468 460.5,82.5 Z"/></g>
<g><path style="opacity:1" fill="#94b3f8" d="M 516.5,82.5 C 534.185,83.0143 542.685,92.0143 542,109.5C 536.156,124.341 525.656,129.174 510.5,124C 499.351,116.212 496.517,106.045 502,93.5C 505.857,88.4678 510.69,84.8011 516.5,82.5 Z"/></g>
<g><path style="opacity:1" fill="#fa9392" d="M 403.5,94.5 C 402.167,94.5 400.833,94.5 399.5,94.5C 402.759,89.5368 407.426,87.2035 413.5,87.5C 413.5,88.5 413.5,89.5 413.5,90.5C 409.564,90.4755 406.23,91.8088 403.5,94.5 Z"/></g>
<g><path style="opacity:1" fill="#4b4df2" d="M 279.5,91.5 C 280.167,91.5 280.833,91.5 281.5,91.5C 282.167,91.5 282.833,91.5 283.5,91.5C 306.5,91.5 329.5,91.5 352.5,91.5C 358.509,91.3338 364.509,91.5005 370.5,92C 371.984,92.6622 373.317,93.4955 374.5,94.5C 376.168,96.4786 376.834,98.812 376.5,101.5C 385.178,101.176 393.844,101.01 402.5,101C 403.667,101.5 404.5,102.333 405,103.5C 407.018,133.495 408.852,163.495 410.5,193.5C 410.785,198.897 410.451,204.23 409.5,209.5C 410.732,212.3 411.399,215.3 411.5,218.5C 413.018,243.495 414.352,268.495 415.5,293.5C 414.167,293.5 412.833,293.5 411.5,293.5C 411.784,291.585 411.451,289.919 410.5,288.5C 410.08,263.785 408.747,239.119 406.5,214.5C 405.562,179.614 403.729,144.614 401,109.5C 399.818,107.643 398.151,106.643 396,106.5C 383.38,107.91 370.713,108.577 358,108.5C 323.851,107.068 289.684,106.235 255.5,106C 253.963,104.89 253.297,103.39 253.5,101.5C 244.846,100.514 236.179,100.014 227.5,100C 226.619,100.708 225.953,101.542 225.5,102.5C 225.144,108.077 224.144,113.41 222.5,118.5C 222.5,110.833 222.5,103.167 222.5,95.5C 223.911,94.0924 225.577,93.0924 227.5,92.5C 234.295,93.4965 241.128,94.1632 248,94.5C 251.444,94.46 254.611,93.6267 257.5,92C 264.826,91.5003 272.159,91.3337 279.5,91.5 Z"/></g>
<g><path style="opacity:1" fill="#0e0365" d="M 374.5,94.5 C 380.833,94.5 387.167,94.5 393.5,94.5C 395.5,94.5 397.5,94.5 399.5,94.5C 400.833,94.5 402.167,94.5 403.5,94.5C 414.22,98.2403 419.22,105.907 418.5,117.5C 418.5,118.5 418.5,119.5 418.5,120.5C 418.181,125.363 418.514,130.03 419.5,134.5C 419.5,137.167 419.5,139.833 419.5,142.5C 419.5,144.167 419.5,145.833 419.5,147.5C 420.089,157.84 420.755,168.174 421.5,178.5C 421.502,185.52 421.835,192.52 422.5,199.5C 418.255,197.904 414.255,195.904 410.5,193.5C 408.852,163.495 407.018,133.495 405,103.5C 404.5,102.333 403.667,101.5 402.5,101C 393.844,101.01 385.178,101.176 376.5,101.5C 376.834,98.812 376.168,96.4786 374.5,94.5 Z"/></g>
<g><path style="opacity:1" fill="#f69497" d="M 418.5,120.5 C 418.5,119.5 418.5,118.5 418.5,117.5C 425.76,113.293 428.427,106.96 426.5,98.5C 427.822,98.33 428.989,98.6634 430,99.5C 430.667,102.833 430.667,106.167 430,109.5C 428.217,115.453 424.384,119.119 418.5,120.5 Z"/></g>
<g><path style="opacity:1" fill="#bccffa" d="M 410.5,288.5 C 410.5,290.167 410.5,291.833 410.5,293.5C 349.167,293.5 287.833,293.5 226.5,293.5C 225.501,244.003 225.168,194.336 225.5,144.5C 226.058,130.419 226.058,116.419 225.5,102.5C 225.953,101.542 226.619,100.708 227.5,100C 236.179,100.014 244.846,100.514 253.5,101.5C 253.297,103.39 253.963,104.89 255.5,106C 289.684,106.235 323.851,107.068 358,108.5C 370.713,108.577 383.38,107.91 396,106.5C 398.151,106.643 399.818,107.643 401,109.5C 403.729,144.614 405.562,179.614 406.5,214.5C 408.747,239.119 410.08,263.785 410.5,288.5 Z"/></g>
<g><path style="opacity:1" fill="#f78987" d="M 515.5,87.5 C 517.5,87.5 519.5,87.5 521.5,87.5C 521.5,88.5 521.5,89.5 521.5,90.5C 512.797,91.1765 508.13,95.8432 507.5,104.5C 509.144,116.495 515.81,120.662 527.5,117C 529.585,115.959 531.252,114.459 532.5,112.5C 535.105,114.236 535.105,116.069 532.5,118C 519.903,125.467 510.403,122.634 504,109.5C 502.333,99.1639 506.166,91.8306 515.5,87.5 Z"/></g>
<g><path style="opacity:1" fill="#f8817c" d="M 461.5,87.5 C 463.5,87.5 465.5,87.5 467.5,87.5C 467.5,88.5 467.5,89.5 467.5,90.5C 457.063,91.4344 452.229,97.1011 453,107.5C 456.943,117.638 463.943,120.638 474,116.5C 474.692,117.025 475.192,117.692 475.5,118.5C 467.321,124.226 459.821,123.226 453,115.5C 446.388,103.102 449.222,93.7689 461.5,87.5 Z"/></g>
<g><path style="opacity:1" fill="#bed0fb" d="M 103.5,267.5 C 101.537,274.424 100.87,281.757 101.5,289.5C 100.675,285.353 100.175,281.019 100,276.5C 99,274.5 98,272.5 97,270.5C 96.8279,277.013 96.3279,283.347 95.5,289.5C 95.5,259.5 95.5,229.5 95.5,199.5C 92.8333,199.5 90.1667,199.5 87.5,199.5C 88.9187,198.549 90.5853,198.216 92.5,198.5C 92.6664,190.16 92.4997,181.827 92,173.5C 90.7246,171.283 89.7246,168.949 89,166.5C 88.4879,149.554 92.8212,133.887 102,119.5C 105.519,115.247 109.519,114.58 114,117.5C 114.175,138.126 108.175,156.793 96,173.5C 94.5586,205.175 97.0586,236.508 103.5,267.5 Z"/></g>
<g><path style="opacity:1" fill="#91a6f5" d="M 192.5,117.5 C 193.978,117.238 195.311,117.571 196.5,118.5C 195.68,120.111 194.346,120.778 192.5,120.5C 192.5,119.5 192.5,118.5 192.5,117.5 Z"/></g>
<g><path style="opacity:1" fill="#859df4" d="M 197.5,117.5 C 198.978,117.238 200.311,117.571 201.5,118.5C 200.833,118.833 200.167,119.167 199.5,119.5C 198.287,119.253 197.62,118.586 197.5,117.5 Z"/></g>
<g><path style="opacity:1" fill="#859df4" d="M 202.5,117.5 C 203.978,117.238 205.311,117.571 206.5,118.5C 205.833,118.833 205.167,119.167 204.5,119.5C 203.287,119.253 202.62,118.586 202.5,117.5 Z"/></g>
<g><path style="opacity:1" fill="#d7e1fd" d="M 107.5,118.5 C 111.677,117.842 113.177,119.508 112,123.5C 110.825,127.544 108.992,131.211 106.5,134.5C 106.167,134.167 105.833,133.833 105.5,133.5C 109.035,129.347 110.368,124.68 109.5,119.5C 105.368,123.085 102.201,127.419 100,132.5C 94.7797,143.427 92.613,154.76 93.5,166.5C 91.0394,160.286 90.8727,153.953 93,147.5C 95.7433,136.68 100.577,127.013 107.5,118.5 Z"/></g>
<g><path style="opacity:1" fill="#869ef4" d="M 178.5,119.5 C 182.075,120.207 182.242,121.207 179,122.5C 177.317,121.824 177.15,120.824 178.5,119.5 Z"/></g>
<g><path style="opacity:1" fill="#e4eafc" d="M 270.5,120.5 C 282.849,120.567 295.182,121.067 307.5,122C 309.886,123.887 311.053,126.387 311,129.5C 311.388,143.479 311.555,157.312 311.5,171C 311.506,173.3 311.006,175.466 310,177.5C 298.581,178.488 287.081,178.821 275.5,178.5C 275.5,177.167 275.5,175.833 275.5,174.5C 283.174,174.666 290.841,174.5 298.5,174C 299.517,172.951 299.684,171.784 299,170.5C 292.015,159.921 282.515,156.588 270.5,160.5C 270.5,157.167 270.5,153.833 270.5,150.5C 274.238,152.417 278.238,152.917 282.5,152C 284.324,151.34 285.657,150.173 286.5,148.5C 287.708,149.234 289.041,149.567 290.5,149.5C 290.573,147.973 289.906,146.973 288.5,146.5C 290.792,137.086 287.125,131.753 277.5,130.5C 274.971,131.025 272.638,132.025 270.5,133.5C 270.5,129.167 270.5,124.833 270.5,120.5 Z"/></g>
<g><path style="opacity:1" fill="#879ff5" d="M 245.5,123.5 C 245.5,123.833 245.5,124.167 245.5,124.5C 245.53,125.497 245.03,126.164 244,126.5C 240.469,124.492 236.636,123.492 232.5,123.5C 232.5,122.5 232.5,121.5 232.5,120.5C 236.617,122.126 240.951,123.126 245.5,123.5 Z"/></g>
<g><path style="opacity:1" fill="#e0e8fd" d="M 323.5,123.5 C 345.169,123.333 366.836,123.5 388.5,124C 389.337,125.011 389.67,126.178 389.5,127.5C 367.823,127.833 346.156,127.5 324.5,126.5C 323.873,125.583 323.539,124.583 323.5,123.5 Z"/></g>
<g><path style="opacity:1" fill="#dce4fd" d="M 270.5,120.5 C 270.5,124.833 270.5,129.167 270.5,133.5C 270.167,134.167 269.833,134.833 269.5,135.5C 269.167,135.5 268.833,135.5 268.5,135.5C 268.052,133.535 267.052,133.202 265.5,134.5C 266.005,135.919 267.005,136.585 268.5,136.5C 266.872,141.475 267.539,146.142 270.5,150.5C 270.5,153.833 270.5,157.167 270.5,160.5C 253.281,171.411 254.948,176.077 275.5,174.5C 275.5,175.833 275.5,177.167 275.5,178.5C 267.16,178.666 258.827,178.5 250.5,178C 249.667,177.167 248.833,176.333 248,175.5C 247.884,159.826 248.384,144.159 249.5,128.5C 251.516,129.706 253.516,129.706 255.5,128.5C 254.18,126.73 252.68,126.397 251,127.5C 250.072,124.965 248.238,123.965 245.5,124.5C 245.5,124.167 245.5,123.833 245.5,123.5C 245.511,121.983 246.177,120.816 247.5,120C 255.178,119.523 262.845,119.69 270.5,120.5 Z"/></g>
<g><path style="opacity:1" fill="#8ba1f5" d="M 256.5,128.5 C 259.275,128.834 259.941,130.167 258.5,132.5C 256.889,131.68 256.222,130.346 256.5,128.5 Z"/></g>
<g><path style="opacity:1" fill="#bdd0fa" d="M 561.5,174.5 C 559.979,204.774 553.979,234.107 543.5,262.5C 528.872,300.755 504.872,331.755 471.5,355.5C 471.5,350.167 471.5,344.833 471.5,339.5C 477.358,339.822 483.025,339.489 488.5,338.5C 489.458,338.047 490.292,337.381 491,336.5C 491.678,332.779 491.511,329.112 490.5,325.5C 495.655,324.203 497.488,320.87 496,315.5C 493.436,310.04 490.603,304.706 487.5,299.5C 484.572,298.516 481.572,298.183 478.5,298.5C 478.5,298.167 478.5,297.833 478.5,297.5C 483.363,297.819 488.03,297.486 492.5,296.5C 495.152,295.848 496.819,294.181 497.5,291.5C 496.485,288.724 495.485,286.057 494.5,283.5C 492.277,277.385 489.277,271.719 485.5,266.5C 493.012,264.231 494.345,260.064 489.5,254C 489.728,253.601 490.062,253.435 490.5,253.5C 496.368,251.473 498.534,247.473 497,241.5C 493.425,236.851 488.592,234.685 482.5,235C 485.789,230.211 484.789,226.711 479.5,224.5C 478.391,223.121 477.724,221.455 477.5,219.5C 479.007,210.897 479.674,202.23 479.5,193.5C 485.496,187.671 491.663,182.004 498,176.5C 498.17,167.324 498.67,158.324 499.5,149.5C 499.334,157.84 499.5,166.173 500,174.5C 510.996,165.601 521.83,156.601 532.5,147.5C 534.544,146.969 536.211,145.802 537.5,144C 525.326,143.831 513.326,143.331 501.5,142.5C 514.504,142.667 527.504,142.5 540.5,142C 541.066,141.005 541.733,140.172 542.5,139.5C 542.435,139.938 542.601,140.272 543,140.5C 547.833,137 552.667,133.5 557.5,130C 558.784,129.316 559.951,129.483 561,130.5C 562.124,136.395 562.624,142.395 562.5,148.5C 562.291,157.176 561.958,165.842 561.5,174.5 Z"/></g>
<g><path style="opacity:1" fill="#859df4" d="M 260.5,131.5 C 261.978,131.238 263.311,131.571 264.5,132.5C 263.833,132.833 263.167,133.167 262.5,133.5C 261.287,133.253 260.62,132.586 260.5,131.5 Z"/></g>
<g><path style="opacity:1" fill="#fc786e" d="M 288.5,146.5 C 287.833,146.5 287.167,146.5 286.5,146.5C 286.5,147.167 286.5,147.833 286.5,148.5C 285.657,150.173 284.324,151.34 282.5,152C 278.238,152.917 274.238,152.417 270.5,150.5C 267.539,146.142 266.872,141.475 268.5,136.5C 268.5,136.167 268.5,135.833 268.5,135.5C 268.833,135.5 269.167,135.5 269.5,135.5C 269.833,134.833 270.167,134.167 270.5,133.5C 272.638,132.025 274.971,131.025 277.5,130.5C 287.125,131.753 290.792,137.086 288.5,146.5 Z"/></g>
<g><path style="opacity:1" fill="#91b2f9" d="M 471.5,134.5 C 471.858,137.689 472.525,140.689 473.5,143.5C 473.232,145.099 473.566,146.432 474.5,147.5C 476.959,161.215 478.626,174.882 479.5,188.5C 479.5,190.167 479.5,191.833 479.5,193.5C 479.674,202.23 479.007,210.897 477.5,219.5C 477.724,221.455 478.391,223.121 479.5,224.5C 475.807,225.056 473.14,223.722 471.5,220.5C 466.402,218.017 462.902,214.017 461,208.5C 459.603,206.93 458.103,205.596 456.5,204.5C 449.252,201.796 444.252,203.962 441.5,211C 441.758,213.009 442.425,214.843 443.5,216.5C 441.65,221.683 441.15,227.017 442,232.5C 442.422,234.426 443.589,235.426 445.5,235.5C 441.43,247.29 436.597,258.624 431,269.5C 437.841,258.818 443.341,247.485 447.5,235.5C 449.652,237.369 450.986,239.869 451.5,243C 451.257,243.902 450.923,244.735 450.5,245.5C 447.166,251.991 444.499,258.824 442.5,266C 442.694,270.297 444.027,274.131 446.5,277.5C 441.11,283.043 434.776,287.376 427.5,290.5C 426.027,267.454 424.693,244.454 423.5,221.5C 427.141,215.564 430.808,209.564 434.5,203.5C 433.189,202.742 432.689,201.742 433,200.5C 434.57,200.306 436.07,200.306 437.5,200.5C 436.107,197.398 436.94,196.398 440,197.5C 444.331,191.512 448.164,185.179 451.5,178.5C 451.36,176.876 452.027,175.71 453.5,175C 452.663,173.989 452.33,172.822 452.5,171.5C 453.822,171.67 454.989,171.337 456,170.5C 459.006,162.981 461.506,155.314 463.5,147.5C 464.537,146.07 465.204,144.403 465.5,142.5C 466.371,139.997 467.037,137.33 467.5,134.5C 468.803,130.518 470.137,130.518 471.5,134.5 Z"/></g>
<g><path style="opacity:1" fill="#829af4" d="M 268.5,135.5 C 268.5,135.833 268.5,136.167 268.5,136.5C 267.005,136.585 266.005,135.919 265.5,134.5C 267.052,133.202 268.052,133.535 268.5,135.5 Z"/></g>
<g><path style="opacity:1" fill="#e1e9fd" d="M 323.5,134.5 C 344.996,133.337 366.663,133.171 388.5,134C 389.337,135.011 389.67,136.178 389.5,137.5C 367.833,137.5 346.167,137.5 324.5,137.5C 324.737,136.209 324.404,135.209 323.5,134.5 Z"/></g>
<g><path style="opacity:1" fill="#afc6fb" d="M 419.5,134.5 C 423.846,134.334 428.179,134.501 432.5,135C 434.648,137.075 434.982,139.408 433.5,142C 428.845,142.499 424.179,142.666 419.5,142.5C 419.5,139.833 419.5,137.167 419.5,134.5 Z"/></g>
<g><path style="opacity:1" fill="#adc5fb" d="M 467.5,134.5 C 467.037,137.33 466.371,139.997 465.5,142.5C 459.132,142.83 452.798,142.496 446.5,141.5C 444.993,139.031 445.327,136.865 447.5,135C 454.158,134.5 460.825,134.334 467.5,134.5 Z"/></g>
<g><path style="opacity:1" fill="#adc5fb" d="M 471.5,134.5 C 476.511,134.334 481.511,134.501 486.5,135C 488.648,137.075 488.982,139.408 487.5,142C 482.649,142.174 477.982,142.674 473.5,143.5C 472.525,140.689 471.858,137.689 471.5,134.5 Z"/></g>
<g><path style="opacity:1" fill="#adc5fb" d="M 542.5,139.5 C 541.733,140.172 541.066,141.005 540.5,142C 527.504,142.5 514.504,142.667 501.5,142.5C 498.86,140.121 498.86,137.621 501.5,135C 514.5,134.333 527.5,134.333 540.5,135C 542.037,136.11 542.703,137.61 542.5,139.5 Z"/></g>
<g><path style="opacity:1" fill="#c0d1fa" d="M 207.5,162.5 C 207.5,206.167 207.5,249.833 207.5,293.5C 192.324,293.171 177.324,293.504 162.5,294.5C 161.539,296.265 161.205,298.265 161.5,300.5C 160.513,295.802 158.513,291.468 155.5,287.5C 159.777,288.597 164.11,288.597 168.5,287.5C 169.879,288.609 171.545,289.276 173.5,289.5C 175.333,289.415 176.666,288.748 177.5,287.5C 179.415,287.784 181.081,287.451 182.5,286.5C 182.833,286.5 183.167,286.5 183.5,286.5C 183.5,287.5 183.5,288.5 183.5,289.5C 186.167,289.5 188.833,289.5 191.5,289.5C 191.5,283.5 191.5,277.5 191.5,271.5C 192.657,268.693 192.657,266.026 191.5,263.5C 193.825,257.529 196.159,251.529 198.5,245.5C 198.043,244.702 197.376,244.369 196.5,244.5C 194.95,243.28 193.284,243.28 191.5,244.5C 191.5,241.833 191.5,239.167 191.5,236.5C 206.064,234.069 206.064,231.736 191.5,229.5C 191.5,222.833 191.5,216.167 191.5,209.5C 188.833,209.5 186.167,209.5 183.5,209.5C 183.5,215.5 183.5,221.5 183.5,227.5C 181.386,230.939 179.719,234.606 178.5,238.5C 177.504,223.342 177.17,208.009 177.5,192.5C 174.833,192.5 172.167,192.5 169.5,192.5C 169.5,213.5 169.5,234.5 169.5,255.5C 167.716,256.72 166.05,256.72 164.5,255.5C 164.828,243.988 164.495,232.654 163.5,221.5C 163.226,216.737 163.559,212.07 164.5,207.5C 166.478,206.683 167.478,205.183 167.5,203C 167.16,200.489 166.16,198.322 164.5,196.5C 164.5,191.167 164.5,185.833 164.5,180.5C 161.5,180.5 158.5,180.5 155.5,180.5C 155.5,187.167 155.5,193.833 155.5,200.5C 152.903,201.649 150.403,201.316 148,199.5C 146.527,199.903 145.194,200.57 144,201.5C 143.808,205.22 142.975,208.72 141.5,212C 141.528,213.07 141.861,213.903 142.5,214.5C 142.484,221.514 140.484,227.848 136.5,233.5C 136.5,230.5 136.5,227.5 136.5,224.5C 135.5,224.5 134.5,224.5 133.5,224.5C 130.197,203.225 126.53,182.058 122.5,161C 122.793,138.531 122.96,116.031 123,93.5C 123.236,91.236 123.736,89.0693 124.5,87C 125.5,86.3333 126.5,86.3333 127.5,87C 143.198,97.6928 158.032,109.526 172,122.5C 183.634,134.086 195.467,147.419 207.5,162.5 Z"/></g>
<g><path style="opacity:1" fill="#8994e9" d="M 269.5,135.5 C 271.346,135.222 272.68,135.889 273.5,137.5C 271.167,138.941 269.834,138.275 269.5,135.5 Z"/></g>
<g><path style="opacity:1" fill="#8794ea" d="M 274.5,138.5 C 275.5,138.5 276.5,138.5 277.5,138.5C 276.754,142.31 275.754,142.31 274.5,138.5 Z"/></g>
<g><path style="opacity:1" fill="#7f8af9" d="M 225.5,102.5 C 226.058,116.419 226.058,130.419 225.5,144.5C 225.153,136.612 224.153,128.946 222.5,121.5C 222.5,120.5 222.5,119.5 222.5,118.5C 224.144,113.41 225.144,108.077 225.5,102.5 Z"/></g>
<g><path style="opacity:1" fill="#9691de" d="M 282.5,143.5 C 281.167,143.5 279.833,143.5 278.5,143.5C 278.281,142.325 278.614,141.325 279.5,140.5C 281.213,140.879 282.213,141.879 282.5,143.5 Z"/></g>
<g><path style="opacity:1" fill="#8e93e4" d="M 282.5,143.5 C 284.973,143.088 286.306,144.088 286.5,146.5C 284.027,146.912 282.694,145.912 282.5,143.5 Z"/></g>
<g><path style="opacity:1" fill="#dce5fd" d="M 323.5,142.5 C 345.497,143.009 367.497,143.342 389.5,143.5C 389.5,144.833 389.5,146.167 389.5,147.5C 367.823,147.833 346.156,147.5 324.5,146.5C 323.754,145.264 323.421,143.93 323.5,142.5 Z"/></g>
<g><path style="opacity:1" fill="#929dec" d="M 286.5,146.5 C 287.167,146.5 287.833,146.5 288.5,146.5C 289.906,146.973 290.573,147.973 290.5,149.5C 289.041,149.567 287.708,149.234 286.5,148.5C 286.5,147.833 286.5,147.167 286.5,146.5 Z"/></g>
<g><path style="opacity:1" fill="#abc1f8" d="M 419.5,147.5 C 424.43,147.197 429.263,147.531 434,148.5C 434.667,158.167 434.667,167.833 434,177.5C 429.934,178.464 425.767,178.797 421.5,178.5C 420.755,168.174 420.089,157.84 419.5,147.5 Z"/></g>
<g><path style="opacity:1" fill="#abc3fa" d="M 463.5,147.5 C 461.506,155.314 459.006,162.981 456,170.5C 454.989,171.337 453.822,171.67 452.5,171.5C 452.33,172.822 452.663,173.989 453.5,175C 452.027,175.71 451.36,176.876 451.5,178.5C 449.533,178.739 447.699,178.406 446,177.5C 445.333,167.833 445.333,158.167 446,148.5C 451.741,147.525 457.575,147.192 463.5,147.5 Z"/></g>
<g><path style="opacity:1" fill="#acc5fb" d="M 474.5,147.5 C 479.099,147.2 483.599,147.533 488,148.5C 488.667,158.167 488.667,167.833 488,177.5C 485.435,179.179 482.602,179.846 479.5,179.5C 479.5,182.5 479.5,185.5 479.5,188.5C 478.626,174.882 476.959,161.215 474.5,147.5 Z"/></g>
<g><path style="opacity:1" fill="#acc5fb" d="M 532.5,147.5 C 521.83,156.601 510.996,165.601 500,174.5C 499.5,166.173 499.334,157.84 499.5,149.5C 499.611,148.883 499.944,148.383 500.5,148C 511.161,147.5 521.828,147.333 532.5,147.5 Z"/></g>
<g><path style="opacity:1" fill="#8ca2f5" d="M 290.5,149.5 C 292.973,149.088 294.306,150.088 294.5,152.5C 292.368,152.446 291.035,151.446 290.5,149.5 Z"/></g>
<g><path style="opacity:1" fill="#8ba2f5" d="M 294.5,152.5 C 296.973,152.088 298.306,153.088 298.5,155.5C 296.368,155.446 295.035,154.446 294.5,152.5 Z"/></g>
<g><path style="opacity:1" fill="#8ca2f5" d="M 298.5,155.5 C 300.973,155.088 302.306,156.088 302.5,158.5C 300.368,158.446 299.035,157.446 298.5,155.5 Z"/></g>
<g><path style="opacity:1" fill="#8aa1f5" d="M 302.5,158.5 C 304.973,158.088 306.306,159.088 306.5,161.5C 304.027,161.912 302.694,160.912 302.5,158.5 Z"/></g>
<g><path style="opacity:1" fill="#fd7c71" d="M 275.5,174.5 C 254.948,176.077 253.281,171.411 270.5,160.5C 282.515,156.588 292.015,159.921 299,170.5C 299.684,171.784 299.517,172.951 298.5,174C 290.841,174.5 283.174,174.666 275.5,174.5 Z"/></g>
<g><path style="opacity:1" fill="#8da3f5" d="M 306.5,161.5 C 308.346,161.222 309.68,161.889 310.5,163.5C 308.167,164.941 306.834,164.275 306.5,161.5 Z"/></g>
<g><path style="opacity:1" fill="#8da3f5" d="M 120.5,163.5 C 122.048,163.821 122.715,164.821 122.5,166.5C 119.752,166.598 119.086,165.598 120.5,163.5 Z"/></g>
<g><path style="opacity:1" fill="#98aef7" d="M 322.5,174.5 C 326.677,176.426 330.344,179.093 333.5,182.5C 332.609,183.59 331.609,183.59 330.5,182.5C 328.167,180.667 325.833,178.833 323.5,177C 322.748,176.329 322.414,175.496 322.5,174.5 Z"/></g>
<g><path style="opacity:1" fill="#94a9f6" d="M 115.5,177.5 C 118.14,178.794 118.14,180.127 115.5,181.5C 114.374,180.192 114.374,178.858 115.5,177.5 Z"/></g>
<g><path style="opacity:1" fill="#829bf3" d="M 164.5,196.5 C 162.473,196.338 160.473,196.505 158.5,197C 157.177,197.816 156.511,198.983 156.5,200.5C 156.167,200.5 155.833,200.5 155.5,200.5C 155.5,193.833 155.5,187.167 155.5,180.5C 158.5,180.5 161.5,180.5 164.5,180.5C 164.5,185.833 164.5,191.167 164.5,196.5 Z"/></g>
<g><path style="opacity:1" fill="#dce5fd" d="M 346.5,192.5 C 330.681,193.833 314.514,194.499 298,194.5C 281.833,194.333 265.667,194.167 249.5,194C 248.313,192.981 247.313,191.814 246.5,190.5C 278.503,189.333 310.503,189.5 342.5,191C 343.563,192.188 344.897,192.688 346.5,192.5 Z"/></g>
<g><path style="opacity:1" fill="#e3eafd" d="M 346.5,192.5 C 354.138,191.169 362.138,190.502 370.5,190.5C 378.5,190.667 386.5,190.833 394.5,191C 395.337,192.011 395.67,193.178 395.5,194.5C 380.496,194.667 365.496,194.5 350.5,194C 349.437,192.812 348.103,192.312 346.5,192.5 Z"/></g>
<g><path style="opacity:1" fill="#7d97f4" d="M 178.5,238.5 C 176.053,244.546 173.053,250.213 169.5,255.5C 169.5,234.5 169.5,213.5 169.5,192.5C 172.167,192.5 174.833,192.5 177.5,192.5C 177.17,208.009 177.504,223.342 178.5,238.5 Z"/></g>
<g><path style="opacity:1" fill="#7377c5" d="M 208.5,110.5 C 208.5,112.833 208.5,115.167 208.5,117.5C 212.5,118.167 212.5,118.833 208.5,119.5C 208.5,177.5 208.5,235.5 208.5,293.5C 208.5,293.833 208.5,294.167 208.5,294.5C 193.167,294.5 177.833,294.5 162.5,294.5C 177.324,293.504 192.324,293.171 207.5,293.5C 207.5,249.833 207.5,206.167 207.5,162.5C 207.17,144.992 207.503,127.659 208.5,110.5 Z"/></g>
<g><path style="opacity:0.996" fill="#e7edfd" d="M 71.5,187.5 C 74.8065,207.691 80.1398,227.357 87.5,246.5C 87.5,260.5 87.5,274.5 87.5,288.5C 85.7162,288.107 84.0495,287.441 82.5,286.5C 82.5,274.5 82.5,262.5 82.5,250.5C 79.7131,249.523 76.7131,249.19 73.5,249.5C 73.8319,259.855 73.4986,270.188 72.5,280.5C 71.1401,279.82 69.8068,279.153 68.5,278.5C 68.5,262.167 68.5,245.833 68.5,229.5C 65.8333,229.5 63.1667,229.5 60.5,229.5C 60.5,249.5 60.5,269.5 60.5,289.5C 61.5,289.5 62.5,289.5 63.5,289.5C 67.5937,296.696 71.9271,303.696 76.5,310.5C 61.951,302.786 50.451,291.786 42,277.5C 36.008,264.068 37.008,251.068 45,238.5C 55.2924,224.856 63.9591,210.189 71,194.5C 71.4966,192.19 71.6633,189.857 71.5,187.5 Z"/></g>
<g><path style="opacity:1" fill="#1b1088" d="M 164.5,196.5 C 166.16,198.322 167.16,200.489 167.5,203C 167.478,205.183 166.478,206.683 164.5,207.5C 162.5,207.5 160.5,207.5 158.5,207.5C 158.167,207.5 157.833,207.5 157.5,207.5C 154.333,205.395 154,203.062 156.5,200.5C 156.511,198.983 157.177,197.816 158.5,197C 160.473,196.505 162.473,196.338 164.5,196.5 Z"/></g>
<g><path style="opacity:1" fill="#c6d6fd" d="M 456.5,204.5 C 460.997,186.515 465.164,168.515 469,150.5C 466.963,168 463.63,185.333 459,202.5C 458.583,203.756 457.75,204.423 456.5,204.5 Z"/></g>
<g><path style="opacity:1" fill="#7e98f4" d="M 87.5,199.5 C 90.1667,199.5 92.8333,199.5 95.5,199.5C 95.5,229.5 95.5,259.5 95.5,289.5C 93.5,289.5 91.5,289.5 89.5,289.5C 88.5084,289.672 87.8417,289.338 87.5,288.5C 87.5,274.5 87.5,260.5 87.5,246.5C 87.5,244.167 87.5,241.833 87.5,239.5C 87.5,226.167 87.5,212.833 87.5,199.5 Z"/></g>
<g><path style="opacity:1" fill="#1b0c70" d="M 155.5,200.5 C 155.833,200.5 156.167,200.5 156.5,200.5C 154,203.062 154.333,205.395 157.5,207.5C 155.856,207.286 154.356,207.62 153,208.5C 152.333,213.167 152.333,217.833 153,222.5C 153.725,223.059 154.558,223.392 155.5,223.5C 157.325,222.349 159.325,221.682 161.5,221.5C 162.167,221.5 162.833,221.5 163.5,221.5C 163.5,225.5 163.5,229.5 163.5,233.5C 160.721,233.721 158.054,233.388 155.5,232.5C 153.708,232.634 152.042,232.301 150.5,231.5C 149.589,226.561 148.756,221.561 148,216.5C 146.599,214.808 144.766,214.141 142.5,214.5C 141.861,213.903 141.528,213.07 141.5,212C 142.975,208.72 143.808,205.22 144,201.5C 145.194,200.57 146.527,199.903 148,199.5C 150.403,201.316 152.903,201.649 155.5,200.5 Z"/></g>
<g><path style="opacity:1" fill="#e1e8fd" d="M 246.5,200.5 C 283.331,199.336 320.331,199.169 357.5,200C 359.167,200.833 360.833,201.667 362.5,202.5C 373.313,200.554 384.313,199.887 395.5,200.5C 395.5,201.5 395.5,202.5 395.5,203.5C 386.494,203.666 377.494,203.5 368.5,203C 367.892,202.13 367.059,201.63 366,201.5C 346.278,202.816 326.445,203.482 306.5,203.5C 287.167,203.333 267.833,203.167 248.5,203C 247.934,202.005 247.267,201.172 246.5,200.5 Z"/></g>
<g><path style="opacity:1" fill="#8298f1" d="M 191.5,229.5 C 190.5,229.5 189.5,229.5 188.5,229.5C 189.36,227.184 189.86,224.851 190,222.5C 188.223,224.79 186.056,226.457 183.5,227.5C 183.5,221.5 183.5,215.5 183.5,209.5C 186.167,209.5 188.833,209.5 191.5,209.5C 191.5,216.167 191.5,222.833 191.5,229.5 Z"/></g>
<g><path style="opacity:1" fill="#6264b1" d="M 422.5,206.5 C 423.473,208.948 423.806,211.615 423.5,214.5C 422.686,212.369 422.186,210.036 422,207.5C 420.817,208.731 419.651,208.731 418.5,207.5C 419.689,206.571 421.022,206.238 422.5,206.5 Z"/></g>
<g><path style="opacity:1" fill="#8098f4" d="M 124.5,247.5 C 121.346,254.08 119.513,261.08 119,268.5C 117.783,280.803 117.283,293.137 117.5,305.5C 117.167,305.5 116.833,305.5 116.5,305.5C 116.5,300.167 116.5,294.833 116.5,289.5C 115.842,264.402 115.176,239.402 114.5,214.5C 114.08,212.326 114.08,210.326 114.5,208.5C 117.212,210.26 120.212,210.927 123.5,210.5C 123.638,223.093 123.971,235.426 124.5,247.5 Z"/></g>
<g><path style="opacity:1" fill="#fc9895" d="M 157.5,207.5 C 157.833,207.5 158.167,207.5 158.5,207.5C 159.568,208.434 160.901,208.768 162.5,208.5C 162.769,212.931 162.436,217.265 161.5,221.5C 159.325,221.682 157.325,222.349 155.5,223.5C 154.558,223.392 153.725,223.059 153,222.5C 152.333,217.833 152.333,213.167 153,208.5C 154.356,207.62 155.856,207.286 157.5,207.5 Z"/></g>
<g><path style="opacity:1" fill="#ad8ac0" d="M 158.5,207.5 C 160.5,207.5 162.5,207.5 164.5,207.5C 163.559,212.07 163.226,216.737 163.5,221.5C 162.833,221.5 162.167,221.5 161.5,221.5C 162.436,217.265 162.769,212.931 162.5,208.5C 160.901,208.768 159.568,208.434 158.5,207.5 Z"/></g>
<g><path style="opacity:1" fill="#a1b4f7" d="M 114.5,214.5 C 115.176,239.402 115.842,264.402 116.5,289.5C 115.508,289.672 114.842,289.338 114.5,288.5C 114.5,263.833 114.5,239.167 114.5,214.5 Z"/></g>
<g><path style="opacity:1" fill="#e1e8fd" d="M 247.5,214.5 C 252.511,214.334 257.511,214.501 262.5,215C 263,215.5 263.5,216 264,216.5C 265.475,222.032 265.641,227.532 264.5,233C 258.584,233.807 252.75,233.641 247,232.5C 245.018,226.267 245.184,220.267 247.5,214.5 Z"/></g>
<g><path style="opacity:1" fill="#e1e9fd" d="M 318.5,215.5 C 324.176,215.334 329.843,215.501 335.5,216C 336.126,216.75 336.626,217.584 337,218.5C 337.667,223.167 337.667,227.833 337,232.5C 331.584,233.639 326.084,233.806 320.5,233C 317.562,227.459 316.895,221.626 318.5,215.5 Z"/></g>
<g><path style="opacity:1" fill="#160c7c" d="M 456.5,204.5 C 458.103,205.596 459.603,206.93 461,208.5C 462.902,214.017 466.402,218.017 471.5,220.5C 473.14,223.722 475.807,225.056 479.5,224.5C 484.789,226.711 485.789,230.211 482.5,235C 488.592,234.685 493.425,236.851 497,241.5C 498.534,247.473 496.368,251.473 490.5,253.5C 483.259,244.755 475.426,236.421 467,228.5C 466.837,226.324 466.004,224.491 464.5,223C 461.703,221.767 459.037,220.267 456.5,218.5C 455.893,218.624 455.56,218.957 455.5,219.5C 454.04,217.537 452.373,215.704 450.5,214C 449.167,213.333 447.833,213.333 446.5,214C 445.627,215.045 444.627,215.878 443.5,216.5C 442.425,214.843 441.758,213.009 441.5,211C 444.252,203.962 449.252,201.796 456.5,204.5 Z"/></g>
<g><path style="opacity:1" fill="#faa2a1" d="M 455.5,219.5 C 455.343,220.873 455.51,222.207 456,223.5C 458.167,222 459.667,222.5 460.5,225C 459.777,227.553 458.444,229.72 456.5,231.5C 458.563,235.362 460.23,239.362 461.5,243.5C 461.389,244.117 461.056,244.617 460.5,245C 457.183,245.498 453.85,245.665 450.5,245.5C 450.923,244.735 451.257,243.902 451.5,243C 450.986,239.869 449.652,237.369 447.5,235.5C 446.833,235.5 446.167,235.5 445.5,235.5C 443.589,235.426 442.422,234.426 442,232.5C 441.15,227.017 441.65,221.683 443.5,216.5C 444.627,215.878 445.627,215.045 446.5,214C 447.833,213.333 449.167,213.333 450.5,214C 452.373,215.704 454.04,217.537 455.5,219.5 Z"/></g>
<g><path style="opacity:1" fill="#e1e8fd" d="M 270.5,220.5 C 282.487,221.206 294.487,221.539 306.5,221.5C 306.5,223.167 306.5,224.833 306.5,226.5C 294.5,226.5 282.5,226.5 270.5,226.5C 270.5,224.5 270.5,222.5 270.5,220.5 Z"/></g>
<g><path style="opacity:1" fill="#e1e8fd" d="M 342.5,220.5 C 354.497,221 366.497,221.5 378.5,222C 379.38,223.356 379.714,224.856 379.5,226.5C 367.167,226.5 354.833,226.5 342.5,226.5C 342.5,224.5 342.5,222.5 342.5,220.5 Z"/></g>
<g><path style="opacity:1" fill="#7d96f3" d="M 133.5,224.5 C 134.5,224.5 135.5,224.5 136.5,224.5C 136.5,227.5 136.5,230.5 136.5,233.5C 136.5,233.833 136.5,234.167 136.5,234.5C 133.569,236.091 130.902,238.091 128.5,240.5C 128.5,235.167 128.5,229.833 128.5,224.5C 130.167,224.5 131.833,224.5 133.5,224.5 Z"/></g>
<g><path style="opacity:1" fill="#fa9293" d="M 191.5,229.5 C 206.064,231.736 206.064,234.069 191.5,236.5C 188.904,237.265 186.237,237.599 183.5,237.5C 183.5,238.5 183.5,239.5 183.5,240.5C 181.486,240.608 179.82,239.942 178.5,238.5C 179.719,234.606 181.386,230.939 183.5,227.5C 186.056,226.457 188.223,224.79 190,222.5C 189.86,224.851 189.36,227.184 188.5,229.5C 189.5,229.5 190.5,229.5 191.5,229.5 Z"/></g>
<g><path style="opacity:1" fill="#7d97f4" d="M 68.5,278.5 C 68.5,282.167 68.5,285.833 68.5,289.5C 66.8333,289.5 65.1667,289.5 63.5,289.5C 62.5,289.5 61.5,289.5 60.5,289.5C 60.5,269.5 60.5,249.5 60.5,229.5C 63.1667,229.5 65.8333,229.5 68.5,229.5C 68.5,245.833 68.5,262.167 68.5,278.5 Z"/></g>
<g><path style="opacity:1" fill="#fa9a99" d="M 142.5,214.5 C 144.766,214.141 146.599,214.808 148,216.5C 148.756,221.561 149.589,226.561 150.5,231.5C 149.908,234.127 149.575,236.794 149.5,239.5C 144.931,241.242 140.764,240.575 137,237.5C 136.517,236.552 136.351,235.552 136.5,234.5C 136.5,234.167 136.5,233.833 136.5,233.5C 140.484,227.848 142.484,221.514 142.5,214.5 Z"/></g>
<g><path style="opacity:1" fill="#1d0f8b" d="M 490.5,253.5 C 490.062,253.435 489.728,253.601 489.5,254C 494.345,260.064 493.012,264.231 485.5,266.5C 478.792,257.458 470.792,249.792 461.5,243.5C 460.23,239.362 458.563,235.362 456.5,231.5C 458.444,229.72 459.777,227.553 460.5,225C 459.667,222.5 458.167,222 456,223.5C 455.51,222.207 455.343,220.873 455.5,219.5C 455.56,218.957 455.893,218.624 456.5,218.5C 459.037,220.267 461.703,221.767 464.5,223C 466.004,224.491 466.837,226.324 467,228.5C 475.426,236.421 483.259,244.755 490.5,253.5 Z"/></g>
<g><path style="opacity:1" fill="#c0cef8" d="M 150.5,231.5 C 152.042,232.301 153.708,232.634 155.5,232.5C 155.5,237.5 155.5,242.5 155.5,247.5C 153.013,245.191 151.013,242.524 149.5,239.5C 149.575,236.794 149.908,234.127 150.5,231.5 Z"/></g>
<g><path style="opacity:1" fill="#8199f2" d="M 163.5,221.5 C 164.495,232.654 164.828,243.988 164.5,255.5C 161.55,253.885 158.884,251.885 156.5,249.5C 156.167,248.833 155.833,248.167 155.5,247.5C 155.5,242.5 155.5,237.5 155.5,232.5C 158.054,233.388 160.721,233.721 163.5,233.5C 163.5,229.5 163.5,225.5 163.5,221.5 Z"/></g>
<g><path style="opacity:1" fill="#8e9cee" d="M 191.5,236.5 C 191.5,239.167 191.5,241.833 191.5,244.5C 189.254,244.936 187.087,245.603 185,246.5C 183.676,251.681 182.176,256.681 180.5,261.5C 181.226,254.421 182.226,247.421 183.5,240.5C 183.5,239.5 183.5,238.5 183.5,237.5C 186.237,237.599 188.904,237.265 191.5,236.5 Z"/></g>
<g><path style="opacity:1" fill="#12086f" d="M 410.5,193.5 C 414.255,195.904 418.255,197.904 422.5,199.5C 422.5,201.833 422.5,204.167 422.5,206.5C 421.022,206.238 419.689,206.571 418.5,207.5C 419.651,208.731 420.817,208.731 422,207.5C 422.186,210.036 422.686,212.369 423.5,214.5C 423.5,216.833 423.5,219.167 423.5,221.5C 424.693,244.454 426.027,267.454 427.5,290.5C 427.5,291.5 427.5,292.5 427.5,293.5C 423.5,293.5 419.5,293.5 415.5,293.5C 414.352,268.495 413.018,243.495 411.5,218.5C 411.399,215.3 410.732,212.3 409.5,209.5C 410.451,204.23 410.785,198.897 410.5,193.5 Z"/></g>
<g><path style="opacity:1" fill="#ccdafd" d="M 445.5,235.5 C 446.167,235.5 446.833,235.5 447.5,235.5C 443.341,247.485 437.841,258.818 431,269.5C 436.597,258.624 441.43,247.29 445.5,235.5 Z"/></g>
<g><path style="opacity:1" fill="#fc7165" d="M 196.5,244.5 C 194.321,251.548 191.988,258.548 189.5,265.5C 188.842,266.398 188.176,267.398 187.5,268.5C 186.702,266.922 186.202,265.256 186,263.5C 184.069,267.04 181.902,270.374 179.5,273.5C 178.702,273.043 178.369,272.376 178.5,271.5C 179.374,268.211 180.041,264.877 180.5,261.5C 182.176,256.681 183.676,251.681 185,246.5C 187.087,245.603 189.254,244.936 191.5,244.5C 193.284,243.28 194.95,243.28 196.5,244.5 Z"/></g>
<g><path style="opacity:1" fill="#fd7164" d="M 461.5,243.5 C 470.792,249.792 478.792,257.458 485.5,266.5C 489.277,271.719 492.277,277.385 494.5,283.5C 494.389,284.117 494.056,284.617 493.5,285C 490.454,285.739 487.454,286.572 484.5,287.5C 483.223,285.05 481.723,282.717 480,280.5C 480.203,282.937 481.037,285.271 482.5,287.5C 474.842,291.427 466.842,292.427 458.5,290.5C 454.472,286.141 450.472,281.807 446.5,277.5C 444.027,274.131 442.694,270.297 442.5,266C 444.499,258.824 447.166,251.991 450.5,245.5C 453.85,245.665 457.183,245.498 460.5,245C 461.056,244.617 461.389,244.117 461.5,243.5 Z"/></g>
<g><path style="opacity:1" fill="#819af4" d="M 82.5,250.5 C 82.5,262.5 82.5,274.5 82.5,286.5C 82.5,287.5 82.5,288.5 82.5,289.5C 79.8333,289.5 77.1667,289.5 74.5,289.5C 74.5,276.5 74.5,263.5 74.5,250.5C 77.1667,250.5 79.8333,250.5 82.5,250.5 Z"/></g>
<g><path style="opacity:1" fill="#fd867e" d="M 266.5,248.5 C 265.786,254.156 263.286,258.823 259,262.5C 255.663,260.849 253.497,258.182 252.5,254.5C 253.035,252.899 254.035,252.399 255.5,253C 256.667,254.833 257.833,256.667 259,258.5C 260.786,255.264 262.286,251.93 263.5,248.5C 265.394,243.537 266.394,243.537 266.5,248.5 Z"/></g>
<g><path style="opacity:1" fill="#dde5fd" d="M 277.5,254.5 C 316.501,254.333 355.501,254.5 394.5,255C 395.833,256.333 395.833,257.667 394.5,259C 391.833,259.333 389.167,259.667 386.5,260C 350.162,260.833 313.829,260.667 277.5,259.5C 276.185,257.801 276.185,256.135 277.5,254.5 Z"/></g>
<g><path style="opacity:1" fill="#4c4ef7" d="M 178.5,238.5 C 179.82,239.942 181.486,240.608 183.5,240.5C 182.226,247.421 181.226,254.421 180.5,261.5C 175.661,270.231 168.328,272.898 158.5,269.5C 158.936,262.683 158.269,256.016 156.5,249.5C 158.884,251.885 161.55,253.885 164.5,255.5C 166.05,256.72 167.716,256.72 169.5,255.5C 173.053,250.213 176.053,244.546 178.5,238.5 Z"/></g>
<g><path style="opacity:1" fill="#6956ea" d="M 196.5,244.5 C 197.376,244.369 198.043,244.702 198.5,245.5C 196.159,251.529 193.825,257.529 191.5,263.5C 191.167,264.5 190.5,265.167 189.5,265.5C 191.988,258.548 194.321,251.548 196.5,244.5 Z"/></g>
<g><path style="opacity:1" fill="#110877" d="M 222.5,95.5 C 222.5,103.167 222.5,110.833 222.5,118.5C 222.5,119.5 222.5,120.5 222.5,121.5C 222.5,159.5 222.5,197.5 222.5,235.5C 222.5,254.833 222.5,274.167 222.5,293.5C 217.833,293.5 213.167,293.5 208.5,293.5C 208.5,235.5 208.5,177.5 208.5,119.5C 212.5,118.833 212.5,118.167 208.5,117.5C 208.5,115.167 208.5,112.833 208.5,110.5C 210.402,102.931 215.068,97.9312 222.5,95.5 Z"/></g>
<g><path style="opacity:1" fill="#768eeb" d="M 217.5,118.5 C 218.978,118.238 220.311,118.571 221.5,119.5C 220.833,119.833 220.167,120.167 219.5,120.5C 218.287,120.253 217.62,119.586 217.5,118.5 Z"/></g>
<g><path style="opacity:1" fill="#7085e4" d="M 212.5,117.5 C 213.978,117.238 215.311,117.571 216.5,118.5C 214.537,121.194 213.203,120.861 212.5,117.5 Z"/></g>
<g><path style="opacity:1" fill="#dfe5fa" d="M 263.5,248.5 C 262.286,251.93 260.786,255.264 259,258.5C 257.833,256.667 256.667,254.833 255.5,253C 254.035,252.399 253.035,252.899 252.5,254.5C 253.497,258.182 255.663,260.849 259,262.5C 263.286,258.823 265.786,254.156 266.5,248.5C 267.458,248.953 268.292,249.619 269,250.5C 269.667,254.833 269.667,259.167 269,263.5C 268.5,264 268,264.5 267.5,265C 262.5,265.667 257.5,265.667 252.5,265C 251.692,264.692 251.025,264.192 250.5,263.5C 249.39,258.889 249.223,254.222 250,249.5C 254.401,248.533 258.901,248.2 263.5,248.5 Z"/></g>
<g><path style="opacity:1" fill="#dbe4fe" d="M 543.5,262.5 C 546.084,274.754 549.584,286.754 554,298.5C 556.11,310.005 554.11,320.672 548,330.5C 536.323,344.836 521.823,355.336 504.5,362C 494.637,365.732 484.637,369.066 474.5,372C 472.65,372.69 471.316,373.856 470.5,375.5C 470.5,368.833 470.5,362.167 470.5,355.5C 470.833,355.5 471.167,355.5 471.5,355.5C 504.872,331.755 528.872,300.755 543.5,262.5 Z"/></g>
<g><path style="opacity:1" fill="#fba6a5" d="M 189.5,265.5 C 190.5,265.167 191.167,264.5 191.5,263.5C 192.657,266.026 192.657,268.693 191.5,271.5C 189.833,272.5 188.5,273.833 187.5,275.5C 186.1,276.1 185.1,277.1 184.5,278.5C 183.652,277.375 182.652,277.375 181.5,278.5C 180.598,276.659 179.264,275.326 177.5,274.5C 177.263,273.209 177.596,272.209 178.5,271.5C 178.369,272.376 178.702,273.043 179.5,273.5C 181.902,270.374 184.069,267.04 186,263.5C 186.202,265.256 186.702,266.922 187.5,268.5C 188.176,267.398 188.842,266.398 189.5,265.5 Z"/></g>
<g><path style="opacity:1" fill="#879af3" d="M 180.5,261.5 C 180.041,264.877 179.374,268.211 178.5,271.5C 177.596,272.209 177.263,273.209 177.5,274.5C 175.147,276.343 172.48,277.677 169.5,278.5C 169.5,276.167 169.5,273.833 169.5,271.5C 167.833,271.5 166.167,271.5 164.5,271.5C 164.5,273.833 164.5,276.167 164.5,278.5C 161.246,278.206 158.579,276.873 156.5,274.5C 156.5,274.167 156.5,273.833 156.5,273.5C 156.229,271.62 156.896,270.287 158.5,269.5C 168.328,272.898 175.661,270.231 180.5,261.5 Z"/></g>
<g><path style="opacity:1" fill="#7e98f4" d="M 103.5,267.5 C 105.5,267.5 107.5,267.5 109.5,267.5C 109.5,272.833 109.5,278.167 109.5,283.5C 109.975,286.082 109.308,288.082 107.5,289.5C 105.5,289.5 103.5,289.5 101.5,289.5C 100.87,281.757 101.537,274.424 103.5,267.5 Z"/></g>
<g><path style="opacity:1" fill="#1a1289" d="M 156.5,273.5 C 156.5,273.833 156.5,274.167 156.5,274.5C 153.401,273.366 150.901,271.366 149,268.5C 146.102,263.727 144.102,258.727 143,253.5C 145.778,261.409 150.278,268.076 156.5,273.5 Z"/></g>
<g><path style="opacity:1" fill="#839cf4" d="M 196.5,269.5 C 199.5,269.5 202.5,269.5 205.5,269.5C 205.5,276.167 205.5,282.833 205.5,289.5C 202.5,289.5 199.5,289.5 196.5,289.5C 196.5,282.833 196.5,276.167 196.5,269.5 Z"/></g>
<g><path style="opacity:1" fill="#2b27b2" d="M 222.5,235.5 C 223.497,254.993 223.83,274.66 223.5,294.5C 218.5,294.5 213.5,294.5 208.5,294.5C 208.5,294.167 208.5,293.833 208.5,293.5C 213.167,293.5 217.833,293.5 222.5,293.5C 222.5,274.167 222.5,254.833 222.5,235.5 Z"/></g>
<g><path style="opacity:1" fill="#e5ecfd" d="M 101.5,289.5 C 103.5,289.5 105.5,289.5 107.5,289.5C 108.487,292.146 109.487,294.812 110.5,297.5C 110.167,297.833 109.833,298.167 109.5,298.5C 102.506,295.999 95.8394,292.999 89.5,289.5C 91.5,289.5 93.5,289.5 95.5,289.5C 96.3279,283.347 96.8279,277.013 97,270.5C 98,272.5 99,274.5 100,276.5C 100.175,281.019 100.675,285.353 101.5,289.5 Z"/></g>
<g><path style="opacity:1" fill="#c1d3fb" d="M 169.5,278.5 C 167.833,278.5 166.167,278.5 164.5,278.5C 164.5,276.167 164.5,273.833 164.5,271.5C 166.167,271.5 167.833,271.5 169.5,271.5C 169.5,273.833 169.5,276.167 169.5,278.5 Z"/></g>
<g><path style="opacity:1" fill="#fd8d87" d="M 266.5,274.5 C 265.593,280.315 263.093,285.315 259,289.5C 255.058,286.778 253.225,283.278 253.5,279C 254.167,278.333 254.833,278.333 255.5,279C 256.542,280.918 257.708,282.751 259,284.5C 260.769,281.294 262.269,277.961 263.5,274.5C 265.295,269.641 266.295,269.641 266.5,274.5 Z"/></g>
<g><path style="opacity:1" fill="#8098f3" d="M 191.5,271.5 C 191.5,277.5 191.5,283.5 191.5,289.5C 188.833,289.5 186.167,289.5 183.5,289.5C 183.5,288.5 183.5,287.5 183.5,286.5C 185.204,283.061 186.538,279.395 187.5,275.5C 188.5,273.833 189.833,272.5 191.5,271.5 Z"/></g>
<g><path style="opacity:1" fill="#6055e6" d="M 187.5,275.5 C 186.538,279.395 185.204,283.061 183.5,286.5C 183.167,286.5 182.833,286.5 182.5,286.5C 183.167,283.833 183.833,281.167 184.5,278.5C 185.1,277.1 186.1,276.1 187.5,275.5 Z"/></g>
<g><path style="opacity:1" fill="#f5736f" d="M 184.5,278.5 C 183.833,281.167 183.167,283.833 182.5,286.5C 181.081,287.451 179.415,287.784 177.5,287.5C 175.973,287.573 174.973,286.906 174.5,285.5C 177.139,283.527 179.473,281.194 181.5,278.5C 182.652,277.375 183.652,277.375 184.5,278.5 Z"/></g>
<g><path style="opacity:1" fill="#4547eb" d="M 136.5,234.5 C 136.351,235.552 136.517,236.552 137,237.5C 140.764,240.575 144.931,241.242 149.5,239.5C 151.013,242.524 153.013,245.191 155.5,247.5C 155.833,248.167 156.167,248.833 156.5,249.5C 158.269,256.016 158.936,262.683 158.5,269.5C 156.896,270.287 156.229,271.62 156.5,273.5C 150.278,268.076 145.778,261.409 143,253.5C 144.102,258.727 146.102,263.727 149,268.5C 150.901,271.366 153.401,273.366 156.5,274.5C 158.579,276.873 161.246,278.206 164.5,278.5C 166.167,278.5 167.833,278.5 169.5,278.5C 172.48,277.677 175.147,276.343 177.5,274.5C 179.264,275.326 180.598,276.659 181.5,278.5C 179.473,281.194 177.139,283.527 174.5,285.5C 172.214,285.595 170.214,286.262 168.5,287.5C 164.11,288.597 159.777,288.597 155.5,287.5C 154.178,287.67 153.011,287.337 152,286.5C 149.131,292.607 146.965,298.94 145.5,305.5C 136.155,306.768 126.822,306.768 117.5,305.5C 117.283,293.137 117.783,280.803 119,268.5C 119.513,261.08 121.346,254.08 124.5,247.5C 126.086,245.33 127.42,242.996 128.5,240.5C 130.902,238.091 133.569,236.091 136.5,234.5 Z"/></g>
<g><path style="opacity:1" fill="#191288" d="M 127.5,264.5 C 131.584,268.76 135.584,273.26 139.5,278C 142.663,280.416 145.996,282.582 149.5,284.5C 150.521,285.002 150.688,285.668 150,286.5C 139.985,281.651 132.485,274.317 127.5,264.5 Z"/></g>
<g><path style="opacity:1" fill="#becef8" d="M 446.5,277.5 C 450.472,281.807 454.472,286.141 458.5,290.5C 454.985,289.272 451.485,287.938 448,286.5C 445.014,288.32 442.514,290.653 440.5,293.5C 436.167,293.5 431.833,293.5 427.5,293.5C 427.5,292.5 427.5,291.5 427.5,290.5C 434.776,287.376 441.11,283.043 446.5,277.5 Z"/></g>
<g><path style="opacity:1" fill="#e0e8fd" d="M 278.5,280.5 C 316.835,280.333 355.168,280.5 393.5,281C 396.167,282.667 396.167,284.333 393.5,286C 354.833,286.667 316.167,286.667 277.5,286C 276.243,283.924 276.576,282.09 278.5,280.5 Z"/></g>
<g><path style="opacity:1" fill="#fd9b98" d="M 494.5,283.5 C 495.485,286.057 496.485,288.724 497.5,291.5C 496.819,294.181 495.152,295.848 492.5,296.5C 489.833,296.5 487.167,296.5 484.5,296.5C 483.628,293.421 483.628,290.421 484.5,287.5C 487.454,286.572 490.454,285.739 493.5,285C 494.056,284.617 494.389,284.117 494.5,283.5 Z"/></g>
<g><path style="opacity:0.999" fill="#bed0fa" d="M 82.5,250.5 C 79.8333,250.5 77.1667,250.5 74.5,250.5C 74.5,263.5 74.5,276.5 74.5,289.5C 77.1667,289.5 79.8333,289.5 82.5,289.5C 82.5,288.5 82.5,287.5 82.5,286.5C 84.0495,287.441 85.7162,288.107 87.5,288.5C 87.8417,289.338 88.5084,289.672 89.5,289.5C 95.8394,292.999 102.506,295.999 109.5,298.5C 109.833,298.167 110.167,297.833 110.5,297.5C 109.487,294.812 108.487,292.146 107.5,289.5C 109.308,288.082 109.975,286.082 109.5,283.5C 111.527,284.861 113.194,286.527 114.5,288.5C 114.842,289.338 115.508,289.672 116.5,289.5C 116.5,294.833 116.5,300.167 116.5,305.5C 114.792,310.837 115.459,315.837 118.5,320.5C 112.18,320.32 109.68,323.32 111,329.5C 112.488,331.16 114.321,332.16 116.5,332.5C 115.332,339.611 114.332,346.611 113.5,353.5C 113.657,352.127 113.49,350.793 113,349.5C 99.2456,337.915 87.0789,324.915 76.5,310.5C 71.9271,303.696 67.5937,296.696 63.5,289.5C 65.1667,289.5 66.8333,289.5 68.5,289.5C 68.5,285.833 68.5,282.167 68.5,278.5C 69.8068,279.153 71.1401,279.82 72.5,280.5C 73.4986,270.188 73.8319,259.855 73.5,249.5C 76.7131,249.19 79.7131,249.523 82.5,250.5 Z"/></g>
<g><path style="opacity:1" fill="#8195f1" d="M 174.5,285.5 C 174.973,286.906 175.973,287.573 177.5,287.5C 176.666,288.748 175.333,289.415 173.5,289.5C 171.545,289.276 169.879,288.609 168.5,287.5C 170.214,286.262 172.214,285.595 174.5,285.5 Z"/></g>
<g><path style="opacity:1" fill="#dfe4fa" d="M 155.5,287.5 C 158.513,291.468 160.513,295.802 161.5,300.5C 161.833,300.5 162.167,300.5 162.5,300.5C 162.5,301.167 162.833,301.5 163.5,301.5C 165.025,303.216 166.025,305.216 166.5,307.5C 160.171,307.1 153.838,306.767 147.5,306.5C 146.833,306.167 146.167,305.833 145.5,305.5C 146.965,298.94 149.131,292.607 152,286.5C 153.011,287.337 154.178,287.67 155.5,287.5 Z"/></g>
<g><path style="opacity:1" fill="#f9a9aa" d="M 484.5,287.5 C 483.628,290.421 483.628,293.421 484.5,296.5C 487.167,296.5 489.833,296.5 492.5,296.5C 488.03,297.486 483.363,297.819 478.5,297.5C 477.751,296.469 477.085,295.302 476.5,294C 464.505,293.5 452.505,293.333 440.5,293.5C 442.514,290.653 445.014,288.32 448,286.5C 451.485,287.938 454.985,289.272 458.5,290.5C 466.842,292.427 474.842,291.427 482.5,287.5C 481.037,285.271 480.203,282.937 480,280.5C 481.723,282.717 483.223,285.05 484.5,287.5 Z"/></g>
<g><path style="opacity:1" fill="#dae1fa" d="M 263.5,274.5 C 262.269,277.961 260.769,281.294 259,284.5C 257.708,282.751 256.542,280.918 255.5,279C 254.833,278.333 254.167,278.333 253.5,279C 253.225,283.278 255.058,286.778 259,289.5C 263.093,285.315 265.593,280.315 266.5,274.5C 267.79,275.058 268.623,276.058 269,277.5C 269.667,281.5 269.667,285.5 269,289.5C 268.5,290 268,290.5 267.5,291C 261.916,291.806 256.416,291.639 251,290.5C 249.277,285.584 249.11,280.584 250.5,275.5C 254.765,274.561 259.098,274.228 263.5,274.5 Z"/></g>
<g><path style="opacity:1" fill="#737ced" d="M 410.5,288.5 C 411.451,289.919 411.784,291.585 411.5,293.5C 349.833,294.833 288.167,294.833 226.5,293.5C 287.833,293.5 349.167,293.5 410.5,293.5C 410.5,291.833 410.5,290.167 410.5,288.5 Z"/></g>
<g><path style="opacity:1" fill="#4546e6" d="M 222.5,121.5 C 224.153,128.946 225.153,136.612 225.5,144.5C 225.168,194.336 225.501,244.003 226.5,293.5C 288.167,294.833 349.833,294.833 411.5,293.5C 412.833,293.5 414.167,293.5 415.5,293.5C 419.5,293.5 423.5,293.5 427.5,293.5C 431.833,293.5 436.167,293.5 440.5,293.5C 452.505,293.333 464.505,293.5 476.5,294C 477.085,295.302 477.751,296.469 478.5,297.5C 478.5,297.833 478.5,298.167 478.5,298.5C 478.586,299.496 478.252,300.329 477.5,301C 475.19,301.497 472.857,301.663 470.5,301.5C 463.167,301.5 455.833,301.5 448.5,301.5C 444.5,301.5 440.5,301.5 436.5,301.5C 433.5,301.5 430.5,301.5 427.5,301.5C 423.833,301.5 420.167,301.5 416.5,301.5C 417.055,311.491 417.388,321.491 417.5,331.5C 416.508,334.823 415.508,338.156 414.5,341.5C 413.284,328.329 412.284,314.995 411.5,301.5C 349.669,300.501 287.669,300.168 225.5,300.5C 225.171,314.344 225.504,328.01 226.5,341.5C 226.334,347.842 226.5,354.175 227,360.5C 227.903,361.701 229.069,362.535 230.5,363C 285.723,364.326 340.89,363.159 396,359.5C 400.015,359.501 403.849,359.835 407.5,360.5C 407.443,361.609 407.11,362.609 406.5,363.5C 377.816,364.245 349.15,365.412 320.5,367C 289.127,367.962 257.794,367.629 226.5,366C 225.667,365.167 224.833,364.333 224,363.5C 223.5,342.503 223.333,321.503 223.5,300.5C 218.5,300.5 213.5,300.5 208.5,300.5C 193.167,300.5 177.833,300.5 162.5,300.5C 162.167,300.5 161.833,300.5 161.5,300.5C 161.205,298.265 161.539,296.265 162.5,294.5C 177.833,294.5 193.167,294.5 208.5,294.5C 213.5,294.5 218.5,294.5 223.5,294.5C 223.83,274.66 223.497,254.993 222.5,235.5C 222.5,197.5 222.5,159.5 222.5,121.5 Z"/></g>
<g><path style="opacity:1" fill="#bccef7" d="M 163.5,301.5 C 172.833,301.5 182.167,301.5 191.5,301.5C 190.539,304.426 189.873,307.426 189.5,310.5C 188.167,310.5 186.833,310.5 185.5,310.5C 179.018,309.598 172.684,308.598 166.5,307.5C 166.025,305.216 165.025,303.216 163.5,301.5 Z"/></g>
<g><path style="opacity:1" fill="#7e93ed" d="M 162.5,300.5 C 177.833,300.5 193.167,300.5 208.5,300.5C 207.498,313.482 208.998,326.149 213,338.5C 213.173,334.459 213.673,330.459 214.5,326.5C 215.331,333.811 215.831,341.144 216,348.5C 217.944,356.159 219.777,363.826 221.5,371.5C 223.5,371.833 225.5,372.167 227.5,372.5C 226.116,373.801 224.616,373.801 223,372.5C 223.163,376.163 223.663,379.829 224.5,383.5C 224.5,384.167 224.5,384.833 224.5,385.5C 219.38,387.408 217.047,385.408 217.5,379.5C 217.634,377.708 217.301,376.042 216.5,374.5C 213.847,364.222 211.347,353.889 209,343.5C 208.921,345.736 208.421,347.07 207.5,347.5C 206.363,333.979 203.863,320.645 200,307.5C 199.667,314.5 199.333,321.5 199,328.5C 198.283,329.044 197.783,329.711 197.5,330.5C 195.896,329.713 195.229,328.38 195.5,326.5C 195.867,322.033 195.367,317.7 194,313.5C 192.554,315.941 191.721,318.608 191.5,321.5C 189.635,328.433 187.969,335.433 186.5,342.5C 183.609,352.666 180.942,362.999 178.5,373.5C 178.167,374.833 177.833,376.167 177.5,377.5C 177.371,379.216 177.038,380.883 176.5,382.5C 176.5,383.167 176.5,383.833 176.5,384.5C 174.989,386.441 172.989,386.941 170.5,386C 169.248,384.172 169.248,382.339 170.5,380.5C 173.636,368.629 176.803,356.629 180,344.5C 180.499,340.848 180.665,337.182 180.5,333.5C 181.268,334.263 181.768,335.263 182,336.5C 183.901,329.819 185.734,323.152 187.5,316.5C 188.038,314.883 188.371,313.216 188.5,311.5C 187.209,311.737 186.209,311.404 185.5,310.5C 186.833,310.5 188.167,310.5 189.5,310.5C 189.873,307.426 190.539,304.426 191.5,301.5C 182.167,301.5 172.833,301.5 163.5,301.5C 162.833,301.5 162.5,301.167 162.5,300.5 Z"/></g>
<g><path style="opacity:1" fill="#bed0fa" d="M 203.5,301.5 C 204.833,301.5 206.167,301.5 207.5,301.5C 208.026,318.478 206.692,318.478 203.5,301.5 Z"/></g>
<g><path style="opacity:1" fill="#bdcffa" d="M 250.5,301.5 C 249.393,306.081 249.227,310.748 250,315.5C 250.5,316 251,316.5 251.5,317C 257.416,317.807 263.25,317.641 269,316.5C 269.726,311.448 269.559,306.448 268.5,301.5C 316.167,301.5 363.833,301.5 411.5,301.5C 412.284,314.995 413.284,328.329 414.5,341.5C 413.108,344.007 412.108,346.673 411.5,349.5C 410.142,353.248 408.809,356.914 407.5,360.5C 403.849,359.835 400.015,359.501 396,359.5C 340.89,363.159 285.723,364.326 230.5,363C 229.069,362.535 227.903,361.701 227,360.5C 226.5,354.175 226.334,347.842 226.5,341.5C 226.5,328.167 226.5,314.833 226.5,301.5C 234.5,301.5 242.5,301.5 250.5,301.5 Z"/></g>
<g><path style="opacity:1" fill="#aebeef" d="M 427.5,301.5 C 430.5,301.5 433.5,301.5 436.5,301.5C 435.833,303.167 435.167,304.833 434.5,306.5C 432.323,306.586 430.323,307.253 428.5,308.5C 427.526,306.257 427.192,303.924 427.5,301.5 Z"/></g>
<g><path style="opacity:1" fill="#8096f1" d="M 436.5,301.5 C 440.5,301.5 444.5,301.5 448.5,301.5C 450.338,309.852 452.338,318.185 454.5,326.5C 454.5,327.167 454.833,327.5 455.5,327.5C 455.87,331.233 456.537,334.899 457.5,338.5C 460.713,338.19 463.713,338.523 466.5,339.5C 463.833,339.5 461.167,339.5 458.5,339.5C 460.329,349.463 462.995,359.13 466.5,368.5C 466.572,372.626 467.239,376.626 468.5,380.5C 474.5,380.5 480.5,380.5 486.5,380.5C 481.025,381.489 475.358,381.822 469.5,381.5C 469.5,383.167 469.5,384.833 469.5,386.5C 465.855,387.32 463.522,385.987 462.5,382.5C 458.353,381.833 454.353,381.166 450.5,380.5C 454.555,380.824 458.555,380.491 462.5,379.5C 460.604,378.534 458.604,378.201 456.5,378.5C 458.531,378.028 460.198,377.028 461.5,375.5C 458.713,363.446 455.713,351.446 452.5,339.5C 451.209,339.737 450.209,339.404 449.5,338.5C 450.693,338.03 451.36,337.03 451.5,335.5C 451.132,332.362 450.299,329.362 449,326.5C 448.617,327.056 448.117,327.389 447.5,327.5C 447.5,326.833 447.5,326.167 447.5,325.5C 448.139,324.903 448.472,324.07 448.5,323C 447.221,317.706 445.721,312.54 444,307.5C 443.501,312.489 443.334,317.489 443.5,322.5C 443.5,324.5 443.5,326.5 443.5,328.5C 442.5,328.5 441.5,328.5 440.5,328.5C 439.733,327.828 439.066,326.995 438.5,326C 440.25,324.246 440.917,322.079 440.5,319.5C 440.666,315.486 440.499,311.486 440,307.5C 438.236,310.557 437.402,313.89 437.5,317.5C 435.035,326.355 432.702,335.355 430.5,344.5C 430.5,345.5 430.5,346.5 430.5,347.5C 429.883,347.611 429.383,347.944 429,348.5C 427.321,356.214 425.488,363.88 423.5,371.5C 423.624,372.107 423.957,372.44 424.5,372.5C 422.94,374.954 421.94,377.62 421.5,380.5C 421.167,382.5 420.833,384.5 420.5,386.5C 418.585,386.784 416.919,386.451 415.5,385.5C 415.552,381.802 415.886,378.135 416.5,374.5C 418.265,367.863 420.265,361.196 422.5,354.5C 426.041,340.546 429.374,326.546 432.5,312.5C 433.738,310.786 434.405,308.786 434.5,306.5C 435.167,304.833 435.833,303.167 436.5,301.5 Z"/></g>
<g><path style="opacity:1" fill="#110777" d="M 448.5,301.5 C 455.833,301.5 463.167,301.5 470.5,301.5C 470.5,309.833 470.5,318.167 470.5,326.5C 465.167,326.5 459.833,326.5 454.5,326.5C 452.338,318.185 450.338,309.852 448.5,301.5 Z"/></g>
<g><path style="opacity:1" fill="#170d86" d="M 478.5,298.5 C 481.572,298.183 484.572,298.516 487.5,299.5C 490.603,304.706 493.436,310.04 496,315.5C 497.488,320.87 495.655,324.203 490.5,325.5C 489.234,326.09 487.901,326.59 486.5,327C 476.172,327.5 465.839,327.666 455.5,327.5C 454.833,327.5 454.5,327.167 454.5,326.5C 459.833,326.5 465.167,326.5 470.5,326.5C 470.5,318.167 470.5,309.833 470.5,301.5C 472.857,301.663 475.19,301.497 477.5,301C 478.252,300.329 478.586,299.496 478.5,298.5 Z"/></g>
<g><path style="opacity:1" fill="#1a0971" d="M 427.5,301.5 C 427.192,303.924 427.526,306.257 428.5,308.5C 430.323,307.253 432.323,306.586 434.5,306.5C 434.405,308.786 433.738,310.786 432.5,312.5C 430.449,310.406 428.116,310.073 425.5,311.5C 423.934,318.628 421.268,325.294 417.5,331.5C 417.388,321.491 417.055,311.491 416.5,301.5C 420.167,301.5 423.833,301.5 427.5,301.5 Z"/></g>
<g><path style="opacity:1" fill="#1e1090" d="M 116.5,305.5 C 116.833,305.5 117.167,305.5 117.5,305.5C 126.822,306.768 136.155,306.768 145.5,305.5C 146.167,305.833 146.833,306.167 147.5,306.5C 160.682,309.996 174.015,313.33 187.5,316.5C 185.734,323.152 183.901,329.819 182,336.5C 181.768,335.263 181.268,334.263 180.5,333.5C 179.991,330.808 178.991,328.308 177.5,326C 172.177,325.501 166.844,325.334 161.5,325.5C 149.169,325.028 136.835,324.528 124.5,324C 122.308,323.074 120.308,321.907 118.5,320.5C 115.459,315.837 114.792,310.837 116.5,305.5 Z"/></g>
<g><path style="opacity:1" fill="#0d025b" d="M 147.5,306.5 C 153.838,306.767 160.171,307.1 166.5,307.5C 172.684,308.598 179.018,309.598 185.5,310.5C 186.209,311.404 187.209,311.737 188.5,311.5C 188.371,313.216 188.038,314.883 187.5,316.5C 174.015,313.33 160.682,309.996 147.5,306.5 Z"/></g>
<g><path style="opacity:1" fill="#e1e8fd" d="M 277.5,307.5 C 316.501,307.333 355.501,307.5 394.5,308C 395.925,309.714 395.592,311.047 393.5,312C 354.833,312.667 316.167,312.667 277.5,312C 276.272,310.51 276.272,309.01 277.5,307.5 Z"/></g>
<g><path style="opacity:1" fill="#1f1777" d="M 440.5,319.5 C 439.5,318.833 438.5,318.167 437.5,317.5C 437.402,313.89 438.236,310.557 440,307.5C 440.499,311.486 440.666,315.486 440.5,319.5 Z"/></g>
<g><path style="opacity:1" fill="#bbcdf9" d="M 207.5,347.5 C 203.414,342.335 200.08,336.668 197.5,330.5C 197.783,329.711 198.283,329.044 199,328.5C 199.333,321.5 199.667,314.5 200,307.5C 203.863,320.645 206.363,333.979 207.5,347.5 Z"/></g>
<g><path style="opacity:1" fill="#180e64" d="M 195.5,326.5 C 193.926,325.016 192.593,323.349 191.5,321.5C 191.721,318.608 192.554,315.941 194,313.5C 195.367,317.7 195.867,322.033 195.5,326.5 Z"/></g>
<g><path style="opacity:1" fill="#dbe2fa" d="M 250.5,301.5 C 254.833,301.5 259.167,301.5 263.5,301.5C 262.287,304.637 260.787,307.637 259,310.5C 257.809,307.466 255.642,305.799 252.5,305.5C 253.263,309.76 255.429,313.093 259,315.5C 262.819,311.528 265.319,306.861 266.5,301.5C 267.167,301.5 267.833,301.5 268.5,301.5C 269.559,306.448 269.726,311.448 269,316.5C 263.25,317.641 257.416,317.807 251.5,317C 251,316.5 250.5,316 250,315.5C 249.227,310.748 249.393,306.081 250.5,301.5 Z"/></g>
<g><path style="opacity:1" fill="#fd8b84" d="M 263.5,301.5 C 264.5,301.5 265.5,301.5 266.5,301.5C 265.319,306.861 262.819,311.528 259,315.5C 255.429,313.093 253.263,309.76 252.5,305.5C 255.642,305.799 257.809,307.466 259,310.5C 260.787,307.637 262.287,304.637 263.5,301.5 Z"/></g>
<g><path style="opacity:1" fill="#20197c" d="M 447.5,325.5 C 446.167,324.5 444.833,323.5 443.5,322.5C 443.334,317.489 443.501,312.489 444,307.5C 445.721,312.54 447.221,317.706 448.5,323C 448.472,324.07 448.139,324.903 447.5,325.5 Z"/></g>
<g><path style="opacity:1" fill="#faa3a2" d="M 432.5,312.5 C 429.374,326.546 426.041,340.546 422.5,354.5C 421.167,355.833 419.833,357.167 418.5,358.5C 417.306,354.637 414.973,351.637 411.5,349.5C 412.108,346.673 413.108,344.007 414.5,341.5C 415.508,338.156 416.508,334.823 417.5,331.5C 421.268,325.294 423.934,318.628 425.5,311.5C 428.116,310.073 430.449,310.406 432.5,312.5 Z"/></g>
<g><path style="opacity:1" fill="#1e1392" d="M 191.5,321.5 C 192.593,323.349 193.926,325.016 195.5,326.5C 195.229,328.38 195.896,329.713 197.5,330.5C 200.08,336.668 203.414,342.335 207.5,347.5C 208.421,347.07 208.921,345.736 209,343.5C 211.347,353.889 213.847,364.222 216.5,374.5C 215.833,375.167 215.167,375.833 214.5,376.5C 213.508,376.672 212.842,376.338 212.5,375.5C 212.167,374.5 211.5,373.833 210.5,373.5C 209.68,371.86 208.847,370.193 208,368.5C 202.25,362.616 196.75,356.616 191.5,350.5C 189.833,347.833 188.167,345.167 186.5,342.5C 187.969,335.433 189.635,328.433 191.5,321.5 Z"/></g>
<g><path style="opacity:1" fill="#fd9694" d="M 266.5,327.5 C 265.883,333.363 263.216,338.03 258.5,341.5C 255.539,339.588 253.539,336.921 252.5,333.5C 252.833,332.5 253.5,331.833 254.5,331.5C 255.99,333.126 257.49,334.792 259,336.5C 261.038,333.757 262.538,330.757 263.5,327.5C 265.394,322.537 266.394,322.537 266.5,327.5 Z"/></g>
<g><path style="opacity:1" fill="#fc756b" d="M 118.5,320.5 C 120.308,321.907 122.308,323.074 124.5,324C 136.835,324.528 149.169,325.028 161.5,325.5C 161.896,328.044 161.229,330.211 159.5,332C 147.171,332.5 134.838,332.667 122.5,332.5C 120.5,332.5 118.5,332.5 116.5,332.5C 114.321,332.16 112.488,331.16 111,329.5C 109.68,323.32 112.18,320.32 118.5,320.5 Z"/></g>
<g><path style="opacity:1" fill="#fb9695" d="M 437.5,317.5 C 438.5,318.167 439.5,318.833 440.5,319.5C 440.917,322.079 440.25,324.246 438.5,326C 439.066,326.995 439.733,327.828 440.5,328.5C 441.594,330.359 442.427,332.359 443,334.5C 443.333,342.833 443.667,351.167 444,359.5C 444.708,360.381 445.542,361.047 446.5,361.5C 445.809,366.598 444.642,371.598 443,376.5C 440.984,378.608 438.817,378.942 436.5,377.5C 438.673,372.805 439.506,367.805 439,362.5C 435.846,356.53 433.012,350.53 430.5,344.5C 432.702,335.355 435.035,326.355 437.5,317.5 Z"/></g>
<g><path style="opacity:1" fill="#c2d1f9" d="M 443.5,322.5 C 444.833,323.5 446.167,324.5 447.5,325.5C 447.5,326.167 447.5,326.833 447.5,327.5C 446.431,330.408 446.264,333.408 447,336.5C 447.708,337.381 448.542,338.047 449.5,338.5C 450.209,339.404 451.209,339.737 452.5,339.5C 455.713,351.446 458.713,363.446 461.5,375.5C 458.577,375.457 455.577,375.124 452.5,374.5C 456.896,367.914 455.896,366.581 449.5,370.5C 450.059,368.321 450.726,366.154 451.5,364C 450.615,361.843 448.948,361.01 446.5,361.5C 445.542,361.047 444.708,360.381 444,359.5C 443.667,351.167 443.333,342.833 443,334.5C 442.427,332.359 441.594,330.359 440.5,328.5C 441.5,328.5 442.5,328.5 443.5,328.5C 443.5,326.5 443.5,324.5 443.5,322.5 Z"/></g>
<g><path style="opacity:1" fill="#4b4df5" d="M 490.5,325.5 C 491.511,329.112 491.678,332.779 491,336.5C 490.292,337.381 489.458,338.047 488.5,338.5C 482.5,338.5 476.5,338.5 470.5,338.5C 470.5,344.167 470.5,349.833 470.5,355.5C 470.5,362.167 470.5,368.833 470.5,375.5C 470.414,376.496 470.748,377.329 471.5,378C 476.933,377.882 481.933,378.715 486.5,380.5C 480.5,380.5 474.5,380.5 468.5,380.5C 467.239,376.626 466.572,372.626 466.5,368.5C 466.5,358.833 466.5,349.167 466.5,339.5C 463.713,338.523 460.713,338.19 457.5,338.5C 456.537,334.899 455.87,331.233 455.5,327.5C 465.839,327.666 476.172,327.5 486.5,327C 487.901,326.59 489.234,326.09 490.5,325.5 Z"/></g>
<g><path style="opacity:1" fill="#5255f7" d="M 449.5,338.5 C 448.542,338.047 447.708,337.381 447,336.5C 446.264,333.408 446.431,330.408 447.5,327.5C 448.117,327.389 448.617,327.056 449,326.5C 450.299,329.362 451.132,332.362 451.5,335.5C 451.36,337.03 450.693,338.03 449.5,338.5 Z"/></g>
<g><path style="opacity:0.999" fill="#bccefa" d="M 161.5,325.5 C 166.844,325.334 172.177,325.501 177.5,326C 178.991,328.308 179.991,330.808 180.5,333.5C 180.665,337.182 180.499,340.848 180,344.5C 176.803,356.629 173.636,368.629 170.5,380.5C 170.5,379.167 170.5,377.833 170.5,376.5C 167.327,375.632 164.327,375.632 161.5,376.5C 159.277,362.371 157.61,348.038 156.5,333.5C 154.5,333.5 152.5,333.5 150.5,333.5C 152.281,346.856 154.281,360.19 156.5,373.5C 143.327,369.497 131.161,363.497 120,355.5C 119.617,356.056 119.117,356.389 118.5,356.5C 119.404,348.408 120.738,340.408 122.5,332.5C 134.838,332.667 147.171,332.5 159.5,332C 161.229,330.211 161.896,328.044 161.5,325.5 Z"/></g>
<g><path style="opacity:1" fill="#e1e8fd" d="M 277.5,333.5 C 316.501,333.333 355.501,333.5 394.5,334C 395.833,335.333 395.833,336.667 394.5,338C 355.835,338.875 317.168,339.208 278.5,339C 276.365,337.444 276.032,335.611 277.5,333.5 Z"/></g>
<g><path style="opacity:1" fill="#676ded" d="M 411.5,301.5 C 363.833,301.5 316.167,301.5 268.5,301.5C 267.833,301.5 267.167,301.5 266.5,301.5C 265.5,301.5 264.5,301.5 263.5,301.5C 259.167,301.5 254.833,301.5 250.5,301.5C 242.5,301.5 234.5,301.5 226.5,301.5C 226.5,314.833 226.5,328.167 226.5,341.5C 225.504,328.01 225.171,314.344 225.5,300.5C 287.669,300.168 349.669,300.501 411.5,301.5 Z"/></g>
<g><path style="opacity:1" fill="#dae1fa" d="M 263.5,327.5 C 262.538,330.757 261.038,333.757 259,336.5C 257.49,334.792 255.99,333.126 254.5,331.5C 253.5,331.833 252.833,332.5 252.5,333.5C 253.539,336.921 255.539,339.588 258.5,341.5C 263.216,338.03 265.883,333.363 266.5,327.5C 267.75,327.577 268.583,328.244 269,329.5C 269.667,333.833 269.667,338.167 269,342.5C 263.25,343.641 257.416,343.807 251.5,343C 251,342.5 250.5,342 250,341.5C 249.333,337.167 249.333,332.833 250,328.5C 254.401,327.533 258.901,327.2 263.5,327.5 Z"/></g>
<g><path style="opacity:1" fill="#bfcffb" d="M 466.5,339.5 C 466.5,349.167 466.5,358.833 466.5,368.5C 462.995,359.13 460.329,349.463 458.5,339.5C 461.167,339.5 463.833,339.5 466.5,339.5 Z"/></g>
<g><path style="opacity:1" fill="#15085e" d="M 186.5,342.5 C 188.167,345.167 189.833,347.833 191.5,350.5C 189.698,357.079 188.198,363.746 187,370.5C 186.8,372.32 185.966,373.653 184.5,374.5C 182.435,374.483 180.435,374.15 178.5,373.5C 180.942,362.999 183.609,352.666 186.5,342.5 Z"/></g>
<g><path style="opacity:0.999" fill="#c0cef7" d="M 430.5,344.5 C 433.012,350.53 435.846,356.53 439,362.5C 439.506,367.805 438.673,372.805 436.5,377.5C 434.216,377.975 432.216,378.975 430.5,380.5C 427.638,379.319 424.638,379.319 421.5,380.5C 421.94,377.62 422.94,374.954 424.5,372.5C 427.556,370.737 429.389,368.07 430,364.5C 430.499,358.843 430.666,353.176 430.5,347.5C 430.5,346.5 430.5,345.5 430.5,344.5 Z"/></g>
<g><path style="opacity:1" fill="#a2b0f9" d="M 488.5,338.5 C 483.025,339.489 477.358,339.822 471.5,339.5C 471.5,344.833 471.5,350.167 471.5,355.5C 471.167,355.5 470.833,355.5 470.5,355.5C 470.5,349.833 470.5,344.167 470.5,338.5C 476.5,338.5 482.5,338.5 488.5,338.5 Z"/></g>
<g><path style="opacity:1" fill="#4b4be9" d="M 161.5,376.5 C 161.5,379.833 161.5,383.167 161.5,386.5C 160.178,386.67 159.011,386.337 158,385.5C 156.985,381.56 156.485,377.56 156.5,373.5C 154.281,360.19 152.281,346.856 150.5,333.5C 152.5,333.5 154.5,333.5 156.5,333.5C 157.61,348.038 159.277,362.371 161.5,376.5 Z"/></g>
<g><path style="opacity:1" fill="#201981" d="M 430.5,347.5 C 430.666,353.176 430.499,358.843 430,364.5C 429.389,368.07 427.556,370.737 424.5,372.5C 423.957,372.44 423.624,372.107 423.5,371.5C 425.488,363.88 427.321,356.214 429,348.5C 429.383,347.944 429.883,347.611 430.5,347.5 Z"/></g>
<g><path style="opacity:1" fill="#baccf8" d="M 191.5,350.5 C 196.75,356.616 202.25,362.616 208,368.5C 208.847,370.193 209.68,371.86 210.5,373.5C 207.115,373.846 203.782,374.512 200.5,375.5C 199.287,375.747 198.62,376.414 198.5,377.5C 193.897,376.617 189.23,376.283 184.5,376.5C 184.5,375.833 184.5,375.167 184.5,374.5C 185.966,373.653 186.8,372.32 187,370.5C 188.198,363.746 189.698,357.079 191.5,350.5 Z"/></g>
<g><path style="opacity:0.999" fill="#5956f0" d="M 116.5,332.5 C 118.5,332.5 120.5,332.5 122.5,332.5C 120.738,340.408 119.404,348.408 118.5,356.5C 117.26,366.512 115.927,376.512 114.5,386.5C 113.167,386.5 111.833,386.5 110.5,386.5C 111.038,375.453 112.038,364.453 113.5,353.5C 114.332,346.611 115.332,339.611 116.5,332.5 Z"/></g>
<g><path style="opacity:1" fill="#f89090" d="M 411.5,349.5 C 414.973,351.637 417.306,354.637 418.5,358.5C 415.882,362.291 413.049,365.957 410,369.5C 409.616,371.197 409.782,372.863 410.5,374.5C 410.5,375.167 410.5,375.833 410.5,376.5C 406.201,377.324 401.867,377.991 397.5,378.5C 395.631,378.493 393.964,378.16 392.5,377.5C 394.027,377.573 395.027,376.906 395.5,375.5C 402.226,374.304 405.893,370.304 406.5,363.5C 407.11,362.609 407.443,361.609 407.5,360.5C 408.809,356.914 410.142,353.248 411.5,349.5 Z"/></g>
<g><path style="opacity:1" fill="#1f0f7a" d="M 422.5,354.5 C 420.265,361.196 418.265,367.863 416.5,374.5C 414.5,374.5 412.5,374.5 410.5,374.5C 409.782,372.863 409.616,371.197 410,369.5C 413.049,365.957 415.882,362.291 418.5,358.5C 419.833,357.167 421.167,355.833 422.5,354.5 Z"/></g>
<g><path style="opacity:1" fill="#2a1771" d="M 446.5,361.5 C 448.948,361.01 450.615,361.843 451.5,364C 450.726,366.154 450.059,368.321 449.5,370.5C 448.246,374.176 446.579,377.676 444.5,381C 439.619,383.138 434.952,382.971 430.5,380.5C 432.216,378.975 434.216,377.975 436.5,377.5C 438.817,378.942 440.984,378.608 443,376.5C 444.642,371.598 445.809,366.598 446.5,361.5 Z"/></g>
<g><path style="opacity:1" fill="#180d81" d="M 208.5,300.5 C 213.5,300.5 218.5,300.5 223.5,300.5C 223.333,321.503 223.5,342.503 224,363.5C 224.833,364.333 225.667,365.167 226.5,366C 257.794,367.629 289.127,367.962 320.5,367C 349.15,365.412 377.816,364.245 406.5,363.5C 405.893,370.304 402.226,374.304 395.5,375.5C 352.327,375.513 309.327,376.18 266.5,377.5C 260.167,377.5 253.833,377.5 247.5,377.5C 243.298,377.817 239.298,377.483 235.5,376.5C 237.196,376.315 238.529,375.481 239.5,374C 242.833,373.667 246.167,373.333 249.5,373C 246.833,372.667 244.167,372.333 241.5,372C 243.311,370.959 243.645,369.793 242.5,368.5C 236.764,367.555 231.764,368.889 227.5,372.5C 225.5,372.167 223.5,371.833 221.5,371.5C 219.777,363.826 217.944,356.159 216,348.5C 215.831,341.144 215.331,333.811 214.5,326.5C 213.673,330.459 213.173,334.459 213,338.5C 208.998,326.149 207.498,313.482 208.5,300.5 Z"/></g>
<g><path style="opacity:1" fill="#7f7ec1" d="M 213.5,310.5 C 214.693,310.97 215.36,311.97 215.5,313.5C 215.167,314.5 214.833,315.5 214.5,316.5C 213.534,314.604 213.201,312.604 213.5,310.5 Z"/></g>
<g><path style="opacity:1" fill="#110555" d="M 242.5,368.5 C 240.167,371.167 237.833,373.833 235.5,376.5C 232.003,379.083 228.336,381.416 224.5,383.5C 223.663,379.829 223.163,376.163 223,372.5C 224.616,373.801 226.116,373.801 227.5,372.5C 231.764,368.889 236.764,367.555 242.5,368.5 Z"/></g>
<g><path style="opacity:1" fill="#c17f9b" d="M 242.5,368.5 C 243.645,369.793 243.311,370.959 241.5,372C 244.167,372.333 246.833,372.667 249.5,373C 246.167,373.333 242.833,373.667 239.5,374C 238.529,375.481 237.196,376.315 235.5,376.5C 237.833,373.833 240.167,371.167 242.5,368.5 Z"/></g>
<g><path style="opacity:0.561" fill="#f5f6fc" d="M 210.5,373.5 C 211.5,373.833 212.167,374.5 212.5,375.5C 208.404,376.508 204.404,377.508 200.5,378.5C 199.833,378.167 199.167,377.833 198.5,377.5C 198.62,376.414 199.287,375.747 200.5,375.5C 203.782,374.512 207.115,373.846 210.5,373.5 Z"/></g>
<g><path style="opacity:1" fill="#faa5a3" d="M 178.5,373.5 C 180.435,374.15 182.435,374.483 184.5,374.5C 184.5,375.167 184.5,375.833 184.5,376.5C 182.393,377.468 180.059,377.802 177.5,377.5C 177.833,376.167 178.167,374.833 178.5,373.5 Z"/></g>
<g><path style="opacity:0.982" fill="#d8def7" d="M 395.5,375.5 C 395.027,376.906 394.027,377.573 392.5,377.5C 389.888,378.779 387.555,380.445 385.5,382.5C 374.88,383.62 364.213,383.787 353.5,383C 324.471,381.498 295.471,379.664 266.5,377.5C 309.327,376.18 352.327,375.513 395.5,375.5 Z"/></g>
<g><path style="opacity:1" fill="#1c085a" d="M 184.5,376.5 C 189.23,376.283 193.897,376.617 198.5,377.5C 199.167,377.833 199.833,378.167 200.5,378.5C 201.833,379.167 202.833,380.167 203.5,381.5C 199.724,382.825 195.557,383.491 191,383.5C 186.118,383.446 181.285,383.112 176.5,382.5C 177.038,380.883 177.371,379.216 177.5,377.5C 180.059,377.802 182.393,377.468 184.5,376.5 Z"/></g>
<g><path style="opacity:0.706" fill="#d49db6" d="M 216.5,374.5 C 217.301,376.042 217.634,377.708 217.5,379.5C 216.5,378.5 215.5,377.5 214.5,376.5C 215.167,375.833 215.833,375.167 216.5,374.5 Z"/></g>
<g><path style="opacity:1" fill="#2a1676" d="M 410.5,376.5 C 412.582,377.585 412.916,379.085 411.5,381C 406.173,381.943 400.84,382.777 395.5,383.5C 393.409,383.318 391.409,383.652 389.5,384.5C 387.974,384.006 386.641,383.339 385.5,382.5C 387.555,380.445 389.888,378.779 392.5,377.5C 393.964,378.16 395.631,378.493 397.5,378.5C 401.867,377.991 406.201,377.324 410.5,376.5 Z"/></g>
<g><path style="opacity:0.997" fill="#4e4be4" d="M 456.5,378.5 C 458.604,378.201 460.604,378.534 462.5,379.5C 458.555,380.491 454.555,380.824 450.5,380.5C 450.461,379.244 450.961,378.244 452,377.5C 453.356,378.38 454.856,378.714 456.5,378.5 Z"/></g>
<g><path style="opacity:0.137" fill="#e9b4bb" d="M 235.5,376.5 C 239.298,377.483 243.298,377.817 247.5,377.5C 243.018,378.326 238.351,378.826 233.5,379C 230.621,381.385 227.621,383.552 224.5,385.5C 224.5,384.833 224.5,384.167 224.5,383.5C 228.336,381.416 232.003,379.083 235.5,376.5 Z"/></g>
<g><path style="opacity:0.681" fill="#b7c7f5" d="M 410.5,374.5 C 412.5,374.5 414.5,374.5 416.5,374.5C 415.886,378.135 415.552,381.802 415.5,385.5C 414.596,384.791 414.263,383.791 414.5,382.5C 408.807,383.673 403.14,385.006 397.5,386.5C 396.575,385.643 395.908,384.643 395.5,383.5C 400.84,382.777 406.173,381.943 411.5,381C 412.916,379.085 412.582,377.585 410.5,376.5C 410.5,375.833 410.5,375.167 410.5,374.5 Z"/></g>
<g><path style="opacity:0.69" fill="#fa908a" d="M 203.5,381.5 C 204.404,382.209 204.737,383.209 204.5,384.5C 195.249,384.689 185.916,384.689 176.5,384.5C 176.5,383.833 176.5,383.167 176.5,382.5C 181.285,383.112 186.118,383.446 191,383.5C 195.557,383.491 199.724,382.825 203.5,381.5 Z"/></g>
</svg>
