  <svg    width="1000"    height="1000"    viewBox="0 0 1000 1000"    xmlns="http://www.w3.org/2000/svg"  >    <defs>                                    <pattern        id="pattern"        patternUnits="userSpaceOnUse"        width="25"        height="25"        viewBox="0 0 100 100"        fill="#082376"      >        <circle          cx="50"          cy="50"          r="12.5"        />      </pattern>            <clipPath id="shape">        <path fill="currentColor" d="M848,588.5Q744,677,696,816Q648,955,530,863.5Q412,772,313.5,739.5Q215,707,211,603.5Q207,500,172.5,368.5Q138,237,280.5,249.5Q423,262,518.5,206Q614,150,670,243Q726,336,839,418Q952,500,848,588.5Z"></path>      </clipPath>    </defs>          <g  clip-path="url(#shape)">      <path fill="url(#pattern)" d="M848,588.5Q744,677,696,816Q648,955,530,863.5Q412,772,313.5,739.5Q215,707,211,603.5Q207,500,172.5,368.5Q138,237,280.5,249.5Q423,262,518.5,206Q614,150,670,243Q726,336,839,418Q952,500,848,588.5Z" />    </g>        </svg>