  <svg    width="2000"    height="2000"    viewBox="0 0 1000 1000"    xmlns="http://www.w3.org/2000/svg"  >    <defs>                                    <pattern        id="pattern"        patternUnits="userSpaceOnUse"        width="27.500000000000004"        height="27.500000000000004"        viewBox="0 0 100 100"        fill="#ff589e"      >        <circle          cx="50"          cy="50"          r="12.5"        />      </pattern>            <clipPath id="shape">        <path fill="currentColor" d="M742.5,552Q624,604,586,689Q548,774,440.5,781.5Q333,789,268,698.5Q203,608,205,500.5Q207,393,275.5,311.5Q344,230,461.5,142Q579,54,660,176Q741,298,801,399Q861,500,742.5,552Z"></path>      </clipPath>    </defs>          <g  clip-path="url(#shape)">      <path fill="url(#pattern)" d="M742.5,552Q624,604,586,689Q548,774,440.5,781.5Q333,789,268,698.5Q203,608,205,500.5Q207,393,275.5,311.5Q344,230,461.5,142Q579,54,660,176Q741,298,801,399Q861,500,742.5,552Z" />    </g>        </svg>