  <svg    width="1000"    height="1000"    viewBox="0 0 1000 1000"    xmlns="http://www.w3.org/2000/svg"  >    <defs>      <filter id="grain" x="-50vw" y="-50vh" width="100vw" height="100vh">    <feFlood flood-color="#ffffff" result="neutral-gray" />      <feTurbulence      in="neutral-gray"      type="fractalNoise"      baseFrequency="2.5"      numOctaves="100"      stitchTiles="stitch"      result="noise"    />      <feColorMatrix      in="noise"      type="saturate"      values="0"      result="destaturatedNoise"    ></feColorMatrix>      <feComponentTransfer in="desaturatedNoise" result="theNoise">      <feFuncA type="table" tableValues="0 0 0.1 0"></feFuncA>    </feComponentTransfer>      <feBlend      in="SourceGraphic"      in2="theNoise"      mode="soft-light"      result="noisy-image"    />  </filter>            <linearGradient id="linearGradientId" gradientTransform="rotate(30 0.5 0.5)">      <stop offset="0%"  stop-color="#8ab4f2" /><stop offset="100%"  stop-color="#cff5f8" />    </linearGradient>                              <clipPath id="shape">        <path fill="currentColor" d="M865.5,629.5Q759,759,629.5,834.5Q500,910,403.5,801.5Q307,693,198.5,596.5Q90,500,151.5,356.5Q213,213,356.5,204.5Q500,196,657.5,190.5Q815,185,893.5,342.5Q972,500,865.5,629.5Z"></path>      </clipPath>    </defs>          <g filter="url(#grain)" clip-path="url(#shape)">      <path fill="url(#linearGradientId)" d="M865.5,629.5Q759,759,629.5,834.5Q500,910,403.5,801.5Q307,693,198.5,596.5Q90,500,151.5,356.5Q213,213,356.5,204.5Q500,196,657.5,190.5Q815,185,893.5,342.5Q972,500,865.5,629.5Z" />    </g>        </svg>